<svg width="139" height="4" viewBox="0 0 139 4" fill="none" xmlns="http://www.w3.org/2000/svg">
<path fill-rule="evenodd" clip-rule="evenodd" d="M95.3169 0.571083C95.3461 0.520844 95.3625 0.464607 95.3625 0.405236C95.3625 0.192224 95.1517 0.0195443 94.8916 0.0195443C88.6403 0.0195443 82.3884 0.0151897 76.1362 0.0108349C63.631 0.00212461 51.1247 -0.00658635 38.6195 0.0195455C37.6251 0.0216234 36.62 0.0158669 35.6084 0.010073C32.0298 -0.0104231 28.3695 -0.0313874 24.8127 0.29234C24.5409 0.317078 24.3279 0.340582 24.1725 0.36337C24.0957 0.374645 24.0237 0.387054 23.962 0.401381C23.9312 0.408526 23.8954 0.417869 23.8592 0.43027C23.8293 0.440504 23.768 0.46302 23.7074 0.505065C23.6543 0.541983 23.5066 0.663377 23.5366 0.859603C23.5636 1.03667 23.7169 1.12438 23.7577 1.14623C23.8525 1.19699 23.9581 1.21549 23.9968 1.22225L23.9978 1.22243C24.1093 1.24196 24.2632 1.25562 24.4337 1.26654C25.1291 1.3111 26.4948 1.33216 28.1076 1.34123C30.1669 1.35281 32.6689 1.34483 34.7693 1.33814C35.9664 1.33433 37.0331 1.33093 37.813 1.3318C47.6899 1.34285 57.5669 1.34715 67.4439 1.34779C58.5984 1.52714 49.7536 1.74645 40.9117 2.0283C30.6965 2.06761 21.0577 2.10439 13.2001 2.13437C8.09379 2.15386 3.73972 2.17047 0.468634 2.18304C0.208597 2.18404 -0.00121483 2.35753 5.29472e-06 2.57054C0.00122539 2.78355 0.213016 2.95542 0.473052 2.95442C3.74406 2.94184 8.09806 2.92523 13.2043 2.90575C14.9284 2.89917 16.7383 2.89226 18.6211 2.88507C18.2602 2.90153 17.8992 2.91813 17.5383 2.93487C14.4611 3.07755 12.89 3.15918 12.3361 3.19941C12.2662 3.20449 12.2083 3.2092 12.1638 3.21359C12.1419 3.21576 12.1192 3.21823 12.0981 3.22111L12.0967 3.2213C12.0845 3.22295 12.0393 3.22904 11.9917 3.24315C11.9771 3.2475 11.9473 3.25691 11.9127 3.27341C11.8911 3.2837 11.7992 3.32759 11.736 3.42154C11.7091 3.46899 11.6788 3.57957 11.6793 3.64101C11.6913 3.70033 11.7409 3.80132 11.7743 3.84223C11.8477 3.92112 11.9371 3.95366 11.959 3.96159C12.0157 3.98221 12.0659 3.98905 12.0771 3.99058L12.0782 3.99072C12.0974 3.99339 12.1142 3.99483 12.1251 3.99564C12.1647 3.99859 12.2133 3.99945 12.2567 3.9998C12.4416 4.00129 12.817 3.99446 13.3092 3.98252C14.6731 3.94944 17.018 3.87488 19.0302 3.8109C19.9399 3.78197 20.7817 3.75521 21.434 3.73542C40.2402 3.16486 59.0642 2.84432 77.8893 2.65544C89.5927 2.6089 100.087 2.56597 107.366 2.53374C117.522 2.48877 122.928 2.45967 125.267 2.44157C125.851 2.43705 126.246 2.4332 126.475 2.42994C126.587 2.42835 126.667 2.42682 126.709 2.42519C126.719 2.42482 126.735 2.42414 126.752 2.42279L126.752 2.42276C126.756 2.42246 126.786 2.42024 126.82 2.41352C126.849 2.40691 126.959 2.36577 127.031 2.32053C127.174 2.10667 127.041 1.763 126.914 1.69016C126.874 1.67636 126.815 1.66191 126.796 1.65876C126.786 1.65724 126.769 1.65519 126.762 1.65448C126.749 1.65323 126.737 1.6526 126.732 1.6523C126.719 1.65163 126.706 1.65121 126.695 1.65091C126.53 1.64648 125.808 1.64451 124.757 1.64401C120.53 1.64202 110.767 1.66446 108.939 1.67222C100.515 1.70797 92.0896 1.75705 83.6633 1.83008C88.2401 1.75817 92.817 1.69327 97.3937 1.63223C108.938 1.47829 115.067 1.42118 126.332 1.36184C128.971 1.34794 131.61 1.34175 134.251 1.33556C134.777 1.33433 135.304 1.3331 135.83 1.3318H138.544C138.656 1.3318 138.715 1.33177 138.727 1.3317L138.732 1.33166C138.733 1.33165 138.737 1.33161 138.743 1.33145C138.747 1.33131 138.764 1.33041 138.777 1.32938C139.116 1.16251 139.03 0.651757 138.775 0.562412C138.763 0.561507 138.747 0.560689 138.743 0.560552L138.736 0.560392L138.731 0.560323L138.727 0.560289L138.708 0.560228L138.629 0.560105C138.488 0.559931 138.205 0.559722 137.865 0.559583C137.187 0.559305 136.282 0.559304 135.829 0.560418H134.802C124.025 0.560418 113.249 0.564438 102.472 0.568457C100.087 0.569347 97.7019 0.570237 95.3169 0.571083ZM12.2546 3.98179C12.2492 3.98266 12.248 3.98267 12.2526 3.98204C12.253 3.98199 12.2536 3.98191 12.2546 3.98179ZM24.1803 0.465115C24.1805 0.465056 24.1837 0.465666 24.1893 0.467121C24.1828 0.4659 24.18 0.465173 24.1803 0.465115Z" fill="#197AFF"/>
</svg>
