<svg width="226" height="6" viewBox="0 0 226 6" fill="none" xmlns="http://www.w3.org/2000/svg">
<path fill-rule="evenodd" clip-rule="evenodd" d="M154.976 0.856624C155.023 0.781266 155.05 0.69691 155.05 0.607854C155.05 0.288336 154.707 0.0293164 154.284 0.0293164C144.12 0.0293164 133.955 0.0227845 123.79 0.0162523C103.458 0.00318691 83.1237 -0.00987953 62.7914 0.0293183C61.1746 0.0324352 59.5405 0.0238004 57.8957 0.0151095C52.0773 -0.0156347 46.126 -0.0470811 40.343 0.43851C39.9011 0.475618 39.5547 0.510872 39.3021 0.545056C39.1771 0.561968 39.0602 0.580581 38.9598 0.602071C38.9098 0.612789 38.8516 0.626804 38.7926 0.645406C38.744 0.660756 38.6443 0.69453 38.5459 0.757598C38.4595 0.812975 38.2193 0.995065 38.2681 1.2894C38.3121 1.55501 38.5613 1.68657 38.6277 1.71935C38.7817 1.79549 38.9535 1.82323 39.0163 1.83337L39.018 1.83364C39.1993 1.86293 39.4495 1.88342 39.7267 1.89981C40.8574 1.96666 43.0779 1.99824 45.7001 2.01184C49.0484 2.02921 53.1163 2.01725 56.5314 2.00721C58.4778 2.00149 60.212 1.99639 61.4801 1.9977C77.539 2.01428 93.598 2.02073 109.657 2.02169C95.2751 2.29072 80.8943 2.61968 66.5183 3.04244C49.9095 3.10141 34.2377 3.15658 21.4621 3.20155C13.1597 3.23078 6.08042 3.2557 0.761951 3.27456C0.339158 3.27606 -0.0019752 3.53629 8.60868e-06 3.85581C0.00199235 4.17532 0.346342 4.43312 0.769135 4.43162C6.08747 4.41277 13.1666 4.38784 21.4689 4.35862C24.2721 4.34875 27.2147 4.33839 30.2761 4.32761C29.6892 4.3523 29.1023 4.3772 28.5155 4.4023C23.5122 4.61632 20.9578 4.73877 20.0573 4.79911C19.9436 4.80673 19.8495 4.81379 19.7772 4.82039C19.7415 4.82364 19.7047 4.82735 19.6703 4.83166L19.668 4.83195C19.6481 4.83443 19.5746 4.84355 19.4974 4.86473C19.4736 4.87125 19.425 4.88536 19.3688 4.91011C19.3337 4.92556 19.1842 4.99139 19.0816 5.13231C19.0378 5.20349 18.9886 5.36936 18.9894 5.46151C19.0088 5.55049 19.0896 5.70198 19.1437 5.76335C19.2632 5.88168 19.4086 5.93049 19.4441 5.94238C19.5363 5.97331 19.6179 5.98358 19.6362 5.98588L19.6379 5.98609C19.6692 5.99008 19.6965 5.99224 19.7142 5.99346C19.7785 5.99789 19.8576 5.99917 19.9281 5.99969C20.2288 6.00194 20.8392 5.99168 21.6394 5.97378C23.857 5.92416 27.6695 5.81232 30.9411 5.71635C32.4203 5.67296 33.7889 5.63281 34.8495 5.60313C65.4265 4.74729 96.0324 4.26648 126.64 3.98316C145.669 3.91336 162.731 3.84895 174.567 3.8006C191.079 3.73315 199.869 3.68951 203.672 3.66236C204.622 3.65557 205.263 3.6498 205.636 3.64492C205.818 3.64253 205.948 3.64023 206.017 3.63778C206.032 3.63723 206.059 3.63621 206.086 3.63418L206.087 3.63414C206.093 3.6337 206.141 3.63036 206.196 3.62029C206.244 3.61036 206.423 3.54866 206.54 3.4808C206.772 3.16 206.555 2.64451 206.349 2.53524C206.284 2.51453 206.188 2.49286 206.158 2.48814C206.141 2.48586 206.113 2.48278 206.102 2.48172C206.08 2.47985 206.062 2.4789 206.053 2.47845C206.032 2.47745 206.011 2.47681 205.993 2.47636C205.725 2.46972 204.551 2.46676 202.843 2.46602C195.969 2.46303 180.096 2.49669 177.123 2.50833C163.428 2.56195 149.728 2.63558 136.028 2.74512C143.47 2.63726 150.911 2.5399 158.352 2.44835C177.122 2.21744 187.087 2.13177 205.402 2.04276C209.694 2.0219 213.985 2.01263 218.278 2.00334C219.134 2.00149 219.99 1.99964 220.846 1.9977H225.258C225.44 1.9977 225.536 1.99765 225.556 1.99755L225.565 1.99748C225.565 1.99748 225.573 1.99741 225.581 1.99718C225.589 1.99696 225.617 1.99561 225.638 1.99407C226.188 1.74376 226.049 0.977636 225.634 0.843619C225.615 0.842261 225.589 0.841033 225.582 0.840828L225.571 0.840587L225.563 0.840484L225.556 0.840434L225.526 0.840343L225.397 0.840158C225.167 0.839896 224.707 0.839583 224.155 0.839375C223.053 0.838957 221.581 0.838956 220.844 0.840626H219.175C201.653 0.840626 184.131 0.846656 166.609 0.852686C162.731 0.854021 158.853 0.855355 154.976 0.856624ZM19.9247 5.97269C19.9159 5.97399 19.914 5.97401 19.9216 5.97306C19.9221 5.97299 19.9232 5.97286 19.9247 5.97269ZM39.3147 0.697672C39.315 0.697584 39.3203 0.6985 39.3294 0.700682C39.3189 0.69885 39.3143 0.69776 39.3147 0.697672Z" fill="white"/>
</svg>
