<svg width="131" height="4" viewBox="0 0 131 4" fill="none" xmlns="http://www.w3.org/2000/svg">
<path fill-rule="evenodd" clip-rule="evenodd" d="M89.831 0.571083C89.8586 0.520844 89.874 0.464607 89.874 0.405236C89.874 0.192224 89.6753 0.0195443 89.4303 0.0195443C83.5387 0.0195443 77.6466 0.0151897 71.7543 0.0108349C59.9688 0.00212461 48.1823 -0.00658635 36.3968 0.0195455C35.4596 0.0216234 34.5124 0.0158669 33.559 0.010073C30.1864 -0.0104231 26.7367 -0.0313874 23.3847 0.29234C23.1285 0.317078 22.9277 0.340582 22.7813 0.36337C22.7089 0.374645 22.6411 0.387054 22.5829 0.401381C22.5539 0.408526 22.5202 0.417869 22.486 0.43027C22.4578 0.440504 22.4 0.46302 22.343 0.505065C22.2929 0.541983 22.1537 0.663377 22.1819 0.859603C22.2075 1.03667 22.3519 1.12438 22.3904 1.14623C22.4797 1.19699 22.5793 1.21549 22.6156 1.22225L22.6166 1.22243C22.7217 1.24196 22.8668 1.25562 23.0274 1.26654C23.6829 1.3111 24.97 1.33216 26.4899 1.34123C28.4307 1.35281 30.7887 1.34483 32.7682 1.33814C33.8964 1.33433 34.9017 1.33093 35.6367 1.3318C44.9451 1.34285 54.2537 1.34715 63.5622 1.34779C55.2259 1.52714 46.8901 1.74645 38.5571 2.0283C28.9298 2.06761 19.8457 2.10439 12.4404 2.13437C7.62796 2.15386 3.52449 2.17047 0.441662 2.18304C0.196592 2.18404 -0.00114492 2.35753 4.98999e-06 2.57054C0.00115486 2.78355 0.200756 2.95542 0.445826 2.95442C3.52858 2.94184 7.63198 2.92523 12.4444 2.90575C14.0692 2.89917 15.7749 2.89226 17.5494 2.88507C17.2092 2.90153 16.8691 2.91813 16.5289 2.93487C13.6288 3.07755 12.1481 3.15918 11.6261 3.19941C11.5602 3.20449 11.5057 3.2092 11.4638 3.21359C11.4431 3.21576 11.4217 3.21823 11.4018 3.22111L11.4005 3.2213C11.389 3.22295 11.3464 3.22904 11.3016 3.24315C11.2878 3.2475 11.2596 3.25691 11.2271 3.27341C11.2067 3.2837 11.1201 3.32759 11.0606 3.42154C11.0352 3.46899 11.0067 3.57957 11.0071 3.64101C11.0184 3.70033 11.0652 3.80132 11.0966 3.84223C11.1658 3.92112 11.2501 3.95366 11.2707 3.96159C11.3241 3.98221 11.3714 3.98905 11.382 3.99058L11.383 3.99072C11.4012 3.99339 11.417 3.99483 11.4273 3.99564C11.4646 3.99859 11.5104 3.99945 11.5513 3.9998C11.7255 4.00129 12.0793 3.99446 12.5432 3.98252C13.8286 3.94944 16.0385 3.87488 17.9349 3.8109C18.7923 3.78197 19.5856 3.75521 20.2004 3.73542C37.9242 3.16486 55.6648 2.84432 73.4065 2.65544C84.4363 2.6089 94.3264 2.56597 101.187 2.53374C110.758 2.48877 115.853 2.45967 118.057 2.44157C118.608 2.43705 118.98 2.4332 119.196 2.42994C119.302 2.42835 119.377 2.42682 119.417 2.42519C119.426 2.42482 119.441 2.42414 119.457 2.42279L119.457 2.42276C119.461 2.42246 119.489 2.42024 119.521 2.41352C119.549 2.40691 119.652 2.36577 119.72 2.32053C119.855 2.10667 119.729 1.763 119.609 1.69016C119.572 1.67636 119.516 1.66191 119.499 1.65876C119.489 1.65724 119.473 1.65519 119.466 1.65448C119.454 1.65323 119.443 1.6526 119.438 1.6523C119.426 1.65163 119.413 1.65121 119.403 1.65091C119.248 1.64648 118.567 1.64451 117.577 1.64401C113.593 1.64202 104.392 1.66446 102.669 1.67222C94.7302 1.70797 86.7895 1.75705 78.8482 1.83008C83.1616 1.75817 87.475 1.69327 91.7883 1.63223C102.668 1.47829 108.444 1.42118 119.061 1.36184C121.548 1.34794 124.036 1.34175 126.524 1.33556C127.02 1.33433 127.516 1.3331 128.013 1.3318H130.57C130.676 1.3318 130.731 1.33177 130.743 1.3317L130.748 1.33166C130.748 1.33165 130.752 1.33161 130.757 1.33145C130.761 1.33131 130.778 1.33041 130.79 1.32938C131.109 1.16251 131.029 0.651757 130.788 0.562412C130.777 0.561507 130.762 0.560689 130.758 0.560552L130.751 0.560392L130.747 0.560323L130.743 0.560289L130.725 0.560228L130.651 0.560105C130.517 0.559931 130.251 0.559722 129.931 0.559583C129.292 0.559305 128.439 0.559304 128.011 0.560418H127.044C116.887 0.560418 106.731 0.564438 96.5743 0.568457C94.3265 0.569347 92.0788 0.570237 89.831 0.571083ZM11.5493 3.98179C11.5442 3.98266 11.5431 3.98267 11.5475 3.98204C11.5478 3.98199 11.5484 3.98191 11.5493 3.98179ZM22.7886 0.465115C22.7888 0.465056 22.7918 0.465666 22.7971 0.467121C22.791 0.4659 22.7884 0.465173 22.7886 0.465115Z" fill="white"/>
</svg>
