<svg width="36" height="36" viewBox="0 0 36 36" fill="none" xmlns="http://www.w3.org/2000/svg">
<path d="M3.76104 17.1909C3.36727 18.1018 2.95914 19.0432 2.62367 19.9904C1.43476 23.3442 0.833118 26.4766 0.783263 29.5676C0.770733 29.8504 0.816808 30.1327 0.9186 30.3967C1.02039 30.6608 1.1757 30.901 1.37476 31.1022C2.4665 32.2302 3.75935 32.8454 5.21698 32.9316C7.86943 33.0871 10.483 33.4622 12.6902 33.8087C14.0912 34.0284 15.2302 34.1687 16.2755 34.2489C17.9089 34.3748 19.4865 33.96 20.8148 33.5366C21.3379 33.3676 21.844 33.1885 22.3806 32.9958C22.6206 32.9113 22.8623 32.8268 23.1073 32.7364L23.1842 32.7094L23.5315 33.5949C23.7704 34.2044 24.0092 34.8114 24.2481 35.4159C24.4424 35.9111 24.5624 35.9913 25.0981 35.9913H29.8014C31.5869 35.9913 33.3944 35.9913 35.1807 35.9989H35.1883C35.5998 35.9989 35.844 35.8722 35.9986 35.5764V17.6548C35.8085 17.3684 35.6006 17.2163 35.397 17.2137H35.3911C35.1866 17.2137 34.9754 17.3642 34.7793 17.6489L34.7666 17.6675C34.6999 17.7655 34.6297 17.8669 34.5528 17.9616C33.7078 19.006 32.5578 19.7868 30.9363 20.418C30.7879 20.4844 30.6255 20.5133 30.4633 20.5019C30.3012 20.4906 30.1444 20.4394 30.0068 20.3529C28.5381 19.5231 27.0002 19.126 25.4361 19.1699C25.0719 19.1809 24.7145 19.2172 24.3376 19.2544C24.1686 19.2722 23.9912 19.2899 23.8146 19.3051L23.7571 19.3102L23.5721 18.9333C23.225 18.2185 22.7043 17.6021 22.0575 17.1405C21.4107 16.679 20.6584 16.387 19.8696 16.2912C19.0808 16.1955 18.2805 16.299 17.5421 16.5925C16.8036 16.8859 16.1506 17.3598 15.6426 17.9709C14.8255 18.9451 14.4596 20.1231 14.55 21.4708C14.5568 21.5663 14.5331 21.7818 14.4173 21.8376C13.9889 22.0455 13.5622 22.2364 13.1101 22.4384L12.7121 22.6167L12.6006 22.6665L12.593 22.5448C12.593 22.4865 12.5862 22.4299 12.5828 22.3758C12.5761 22.2584 12.5693 22.1443 12.56 22.0311C12.2888 18.8201 12.3623 16.0155 12.784 13.4425C13.0797 11.6418 13.5588 10.2433 14.2914 9.04005C14.3726 8.89489 14.485 8.76965 14.6207 8.67346C14.7564 8.57727 14.9118 8.51256 15.0756 8.48404C16.0617 8.29307 16.9245 8.28547 17.7145 8.46123C18.0948 8.54573 18.475 8.65305 18.8443 8.75613C19.2465 8.86936 19.6631 8.98682 20.0771 9.07301C20.7447 9.21328 21.3827 9.09414 21.8728 8.73501C22.1065 8.55998 22.3003 8.33723 22.4413 8.08154C22.5824 7.82586 22.6674 7.5431 22.6907 7.25204C22.7203 6.96643 22.6645 6.66814 22.6062 6.35211C22.5784 6.2017 22.5488 6.04622 22.5285 5.88736L22.5209 5.83074L22.5716 5.80286C22.9502 5.59161 23.3811 5.18432 23.2789 4.44156C23.2425 4.15477 23.161 3.87555 23.0372 3.61431C22.3612 2.2395 21.3523 1.28718 20.0425 0.782715H18.546L18.4894 0.801302C18.4335 0.823435 18.375 0.838483 18.3153 0.84609C15.7474 1.09452 13.4515 2.02148 11.4928 3.60079C11.3238 3.73937 11.1548 3.89231 10.9942 4.04019C10.7395 4.28768 10.4648 4.51378 10.1729 4.71619C9.30171 5.28487 8.79471 5.95242 8.53022 6.88108C8.29362 7.71171 7.96154 8.52799 7.64044 9.31722C7.50946 9.63916 7.37426 9.97209 7.24751 10.3008C7.10302 10.6734 7.21625 11.0182 7.5289 11.1568C7.60483 11.1945 7.68798 11.2154 7.7727 11.2181C7.85742 11.2209 7.94175 11.2054 8.01996 11.1727C8.09817 11.14 8.16844 11.0908 8.22601 11.0286C8.28357 10.9664 8.32709 10.8925 8.35362 10.812C8.80738 9.65606 9.32199 8.34546 9.76392 7.04754C9.93292 6.54054 10.1797 6.20255 10.5548 5.94313C10.8753 5.7328 11.1796 5.49863 11.4649 5.24262C13.667 3.15463 16.376 2.06542 19.5169 2.00543C19.668 1.99787 19.8188 2.02685 19.9563 2.08993C20.8707 2.56191 21.5909 3.33924 21.9919 4.28693C22.1153 4.56831 22.0553 4.79393 21.8128 4.96293C21.7714 4.99081 21.7283 5.02293 21.6894 5.05588C21.512 5.19615 21.2914 5.37107 20.9652 5.20376C20.5166 4.97307 20.318 4.57001 20.1828 4.20497C20.0476 3.83993 19.7484 3.68698 19.4155 3.80444C19.0826 3.92189 18.9254 4.23285 19.0344 4.58775C19.353 5.62963 20.0138 6.26676 20.999 6.48224C21.3024 6.54815 21.4511 6.72306 21.4672 7.03318C21.477 7.15657 21.458 7.28057 21.4115 7.39528C21.365 7.51 21.2923 7.61228 21.1993 7.69397C21.0805 7.78766 20.9418 7.85302 20.794 7.88508C20.6461 7.91715 20.4928 7.91508 20.3459 7.87902C20.0133 7.80667 19.6848 7.71727 19.3614 7.61116C19.1924 7.55962 19.0234 7.50638 18.8494 7.45906C17.1273 6.98079 15.613 6.99346 14.2221 7.49708C13.9616 7.58907 13.734 7.75606 13.5681 7.97704C13.198 8.53559 12.8169 9.14061 12.5397 9.78534C11.6863 11.7694 11.4243 13.8515 11.2799 15.6268C11.0694 18.2125 11.1582 21.0238 11.5494 24.2188C11.6677 25.1779 11.3635 25.9164 10.6478 26.4158C10.2988 26.6575 10.216 27.0005 10.4315 27.3106C10.6469 27.6208 11.001 27.6487 11.35 27.4129C12.364 26.72 12.8355 25.7466 12.7992 24.4351C12.7992 24.3777 12.7992 24.0861 12.9386 24.0025C13.4118 23.7219 13.901 23.4532 14.3751 23.193L14.8187 22.9496L14.8939 22.9074L14.9345 22.9842C16.033 25.09 18.0813 26.1479 20.16 25.6798C22.7009 25.1069 24.0182 23.4067 24.0765 20.6258V20.5583L24.1425 20.5447C25.0011 20.3642 25.8855 20.343 26.7518 20.4822C27.8393 20.6512 28.8711 21.056 29.907 21.7142C30.1749 21.8832 30.4014 21.9162 30.6413 21.8156C30.8577 21.726 31.0791 21.639 31.2928 21.5545C31.802 21.3641 32.3012 21.1481 32.7885 20.9072C33.2304 20.6671 33.6583 20.4022 34.0704 20.1138C34.252 19.9913 34.4405 19.8603 34.6281 19.7445L34.7582 19.66V34.7543L34.6872 34.7652L34.6433 34.7728C34.6219 34.7774 34.6001 34.7799 34.5782 34.7804H32.5899C30.2983 34.7804 27.9289 34.7804 25.5975 34.7881C25.3305 34.7881 25.2502 34.6376 25.1852 34.4703C24.8269 33.5408 24.4568 32.6046 24.1416 31.8086C23.9253 31.2602 23.6684 31.1562 23.0862 31.3793L22.7237 31.5196C21.8719 31.8475 20.9906 32.1871 20.1042 32.466C18.9753 32.8217 17.6368 33.1656 16.2721 33.0254C14.7241 32.8665 13.1727 32.6367 11.5874 32.3959C9.92447 32.1424 7.72916 31.8399 5.49498 31.7342C4.29766 31.6878 3.16455 31.1807 2.33214 30.3189C2.13155 30.1038 2.01932 29.8211 2.01781 29.5271C2.04823 28.6821 2.09723 27.6909 2.23074 26.6989C2.62536 23.7752 3.48135 20.7915 4.77504 17.8314C4.87306 17.6067 4.97869 17.3811 5.08093 17.163C5.19923 16.9095 5.32091 16.6493 5.4316 16.389C5.47576 16.294 5.49643 16.1897 5.49187 16.085C5.48732 15.9803 5.45766 15.8782 5.40541 15.7874C5.35696 15.7077 5.29006 15.6409 5.21035 15.5925C5.13064 15.5441 5.04046 15.5156 4.94742 15.5094C4.63984 15.484 4.42437 15.6294 4.28917 15.9538C4.11763 16.3671 3.93596 16.7862 3.76104 17.1909ZM21.7807 23.5141C21.4556 23.8427 21.0688 24.1037 20.6424 24.282C20.216 24.4604 19.7586 24.5526 19.2964 24.5534H19.2862C17.3664 24.5483 15.7491 22.9243 15.7541 21.0044C15.7592 19.0846 17.3791 17.4732 19.2913 17.4732H19.3006C21.2196 17.4782 22.8378 19.1015 22.8327 21.0222C22.8306 21.4864 22.7366 21.9457 22.556 22.3734C22.3755 22.8011 22.1119 23.1888 21.7807 23.5141Z" fill="#262626"/>
<path d="M5.67221 13.3655C5.67355 13.1813 5.74785 13.0051 5.87883 12.8756C6.00981 12.746 6.1868 12.6736 6.37103 12.6743C6.5498 12.6837 6.71873 12.7591 6.84516 12.8858C6.97159 13.0125 7.04652 13.1817 7.05548 13.3605C7.05659 13.4521 7.03953 13.5431 7.00527 13.6281C6.97102 13.7132 6.92024 13.7906 6.85589 13.8559C6.79154 13.9212 6.71488 13.9731 6.63035 14.0086C6.54582 14.0441 6.4551 14.0624 6.36342 14.0627C6.27157 14.0648 6.18025 14.0481 6.09505 14.0138C6.00984 13.9794 5.93253 13.928 5.86784 13.8628C5.80315 13.7976 5.75244 13.7198 5.7188 13.6343C5.68517 13.5488 5.66932 13.4574 5.67221 13.3655Z" fill="#262626"/>
<path d="M23.0201 14.4547L23.0294 14.3297C23.0582 13.9553 23.0869 13.5692 23.1021 13.1864C23.0991 13.1279 23.108 13.0694 23.1283 13.0145C23.1487 12.9596 23.18 12.9094 23.2204 12.867C23.2632 12.8339 23.3125 12.8102 23.365 12.7972C23.4175 12.7843 23.4722 12.7824 23.5254 12.7918C23.796 12.8153 24.0676 12.8246 24.3392 12.8196C24.6772 12.8146 24.8884 12.6118 24.9028 12.2772C24.9324 11.5674 24.9526 10.8491 24.9645 10.1418C24.9704 9.75821 24.7405 9.48443 24.4059 9.47767C24.0713 9.47091 23.8448 9.72441 23.8347 10.1249C23.8263 10.441 23.8279 10.7612 23.8296 11.0713C23.8296 11.2082 23.8296 11.3451 23.8296 11.4812V11.6079H23.0108C22.879 11.6079 22.7573 11.6079 22.6264 11.6079C22.5526 11.6045 22.4789 11.6159 22.4096 11.6415C22.3404 11.6671 22.2769 11.7062 22.223 11.7567C22.1691 11.8072 22.1259 11.868 22.0959 11.9355C22.0659 12.0029 22.0498 12.0757 22.0484 12.1496C21.9909 12.818 21.9191 13.6503 21.8625 14.4497C21.8524 14.5491 21.8668 14.6495 21.9044 14.7421C21.9419 14.8347 22.0015 14.9168 22.0779 14.9812C22.1493 15.0376 22.2332 15.0757 22.3226 15.0924C22.412 15.109 22.504 15.1036 22.5909 15.0766C22.8587 15.0014 22.9939 14.8029 23.0201 14.4547Z" fill="#262626"/>
<path d="M28.4345 14.7464C28.7556 14.6797 29.0598 14.6163 29.364 14.5462C29.4573 14.5312 29.5468 14.498 29.6272 14.4484C29.7077 14.3988 29.7776 14.3338 29.833 14.2572C29.8695 14.1938 29.8928 14.1237 29.9013 14.0511C29.9099 13.9784 29.9036 13.9048 29.8828 13.8347C29.8186 13.5685 29.6065 13.4189 29.3124 13.4189C29.2443 13.4195 29.1763 13.4269 29.1096 13.4409C28.4852 13.5668 27.8371 13.6944 27.1822 13.8237C26.9507 13.8693 26.7867 13.9623 26.6963 14.1009C26.6059 14.2394 26.5882 14.422 26.6389 14.6467C26.6853 14.8538 26.731 15.0608 26.7783 15.2754L26.8696 15.6861L26.7504 15.7165L26.2519 15.8416C25.8817 15.9345 25.5328 16.0215 25.1821 16.117C24.8314 16.2125 24.6354 16.4855 24.6996 16.7829C24.7128 16.8599 24.7414 16.9335 24.7838 16.9991C24.8262 17.0648 24.8815 17.1212 24.9463 17.1648C25.0199 17.2069 25.1012 17.2338 25.1854 17.2439C25.2696 17.2541 25.3549 17.2473 25.4364 17.224C26.1817 17.0491 26.9431 16.8539 27.6993 16.6426C28.159 16.5142 28.148 16.1246 28.0999 15.9032C28.0559 15.6971 28.0103 15.4909 27.9647 15.2805L27.8743 14.8656L27.9985 14.8385L28.4345 14.7464Z" fill="#262626"/>
<path d="M22.7489 21.0213C22.7438 22.9056 21.1688 24.4748 19.2844 24.4689C17.4 24.463 15.8309 22.8904 15.8359 21.0044C15.8457 20.0902 16.2144 19.2165 16.8625 18.5717C17.5106 17.9269 18.3862 17.5627 19.3005 17.5576C21.1831 17.5661 22.754 19.1386 22.7489 21.0213ZM21.3665 21.0289C21.3693 20.6195 21.2508 20.2185 21.0259 19.8764C20.801 19.5343 20.4798 19.2665 20.1028 19.1068C19.7258 18.9471 19.31 18.9027 18.9078 18.9791C18.5056 19.0555 18.1351 19.2494 17.843 19.5362C17.5509 19.823 17.3503 20.19 17.2665 20.5907C17.1827 20.9914 17.2195 21.408 17.3723 21.7878C17.5251 22.1676 17.7869 22.4937 18.1248 22.7248C18.4627 22.9559 18.8615 23.0818 19.2709 23.0865C19.5442 23.0913 19.8158 23.0416 20.0697 22.9404C20.3236 22.8392 20.5549 22.6884 20.7499 22.4969C20.945 22.3054 21.1 22.0769 21.2058 21.8249C21.3117 21.5728 21.3663 21.3022 21.3665 21.0289Z" fill="#197AFF"/>
<path d="M21.3665 21.029C21.364 21.4384 21.2402 21.8379 21.0108 22.1771C20.7814 22.5163 20.4566 22.7799 20.0775 22.9346C19.6984 23.0893 19.282 23.1283 18.8808 23.0465C18.4795 22.9647 18.1116 22.7659 17.8233 22.4751C17.535 22.1843 17.3393 21.8146 17.2609 21.4127C17.1826 21.0108 17.2251 20.5947 17.383 20.217C17.541 19.8392 17.8074 19.5167 18.1485 19.2902C18.4896 19.0637 18.8902 18.9433 19.2996 18.9443C19.5727 18.9437 19.8433 18.9972 20.0955 19.102C20.3477 19.2067 20.5767 19.3605 20.769 19.5545C20.9613 19.7484 21.1131 19.9786 21.2157 20.2318C21.3183 20.4849 21.3695 20.7559 21.3665 21.029ZM19.292 21.705C19.4286 21.7055 19.5623 21.6653 19.676 21.5896C19.7897 21.514 19.8784 21.4062 19.9307 21.28C19.983 21.1538 19.9966 21.0149 19.9698 20.881C19.9429 20.747 19.8769 20.6241 19.78 20.5278C19.6831 20.4315 19.5598 20.3662 19.4257 20.3402C19.2916 20.3142 19.1527 20.3287 19.0269 20.3817C18.901 20.4348 18.7938 20.5242 18.7188 20.6383C18.6439 20.7525 18.6045 20.8864 18.6059 21.023C18.6146 21.2016 18.6899 21.3705 18.8169 21.4964C18.9438 21.6223 19.1134 21.6961 19.292 21.7033V21.705Z" fill="#262626"/>
</svg>
