<svg width="50" height="50" viewBox="0 0 50 50" fill="none" xmlns="http://www.w3.org/2000/svg">
<path d="M25 50C38.8071 50 50 38.8071 50 25C50 11.1929 38.8071 0 25 0C11.1929 0 0 11.1929 0 25C0 38.8071 11.1929 50 25 50Z" fill="white"/>
<g clip-path="url(#clip0_3_12)">
<path d="M30.275 16.0874H8.61877V29.9062H30.275V16.0874Z" fill="#197AFF"/>
<path fill-rule="evenodd" clip-rule="evenodd" d="M13.5 11.55V12.1H14.05H14.6V11.55V11H14.05H13.5V11.55ZM15.7 11.55V12.1H19H22.3V11.55V11H19H15.7V11.55ZM17.9 13.75V14.3H21.2H24.5V13.75V13.2H21.2H17.9V13.75ZM8.16878 15.5688L8 15.7375V25.3V34.8625L8.16878 35.0312C8.33193 35.1944 8.36953 35.2 9.30316 35.2C10.0734 35.2 10.2687 35.219 10.2687 35.2939C10.2687 35.5141 10.7721 36.3716 11.0539 36.6313C11.3892 36.9405 11.9191 37.2323 12.3138 37.3253C12.4819 37.365 11.7749 37.3886 10.2859 37.3931L8 37.4V37.95V38.5H24.5H41V37.95V37.4L38.7141 37.3954C36.77 37.3914 36.4744 37.378 36.7375 37.3055C37.5371 37.0854 38.1207 36.6083 38.4878 35.8744C38.6217 35.6068 38.7313 35.3455 38.7313 35.2939C38.7313 35.219 38.9266 35.2 39.6968 35.2C40.6305 35.2 40.6681 35.1944 40.8312 35.0312L41 34.8625V31.658C41 29.6598 40.9742 28.4052 40.9315 28.3254C40.8938 28.2549 40.2753 27.8625 39.5571 27.4534L38.2514 26.7094L38.2507 24.5174C38.2502 22.9991 38.2243 22.2384 38.1664 22.0423C38.0548 21.6647 37.4853 21.0952 37.1077 20.9836C36.9053 20.9239 36.0087 20.9 33.9623 20.9H31.1V18.3188V15.7375L30.9312 15.5688L30.7625 15.4H19.55H8.33749L8.16878 15.5688ZM30 23.1V29.7H19.55H9.1V23.1V16.5H19.55H30V23.1ZM10.9188 21.0688L10.75 21.2375V23.8188V26.4H11.3H11.85V25.3V24.2H12.675H13.5V23.65V23.1H12.675H11.85V22.55V22H12.95H14.05V21.45V20.9H12.5688C11.0877 20.9 11.0875 20.9 10.9188 21.0688ZM15.3188 21.0688L15.15 21.2375V23.8188V26.4H15.7H16.25V25.3V24.2H16.9062C17.5114 24.2 17.5756 24.2131 17.7312 24.3688C17.8938 24.5313 17.9 24.5717 17.9 25.4688V26.4H18.45H19V25.4477C19 24.4753 18.9466 24.179 18.7098 23.8391C18.5801 23.6528 18.5801 23.6472 18.7098 23.4609C19.1704 22.7996 19.0844 22.011 18.4867 21.4133C18.0304 20.957 17.8132 20.9 16.5311 20.9C15.5147 20.9 15.4831 20.9044 15.3188 21.0688ZM20.2688 21.0688L20.1 21.2375V23.65V26.0625L20.2688 26.2312C20.4375 26.4 20.4377 26.4 21.9188 26.4H23.4V25.85V25.3H22.3H21.2V24.75V24.2H22.025H22.85V23.65V23.1H22.025H21.2V22.55V22H22.3H23.4V21.45V20.9H21.9188C20.4377 20.9 20.4375 20.9 20.2688 21.0688ZM24.6688 21.0688L24.5 21.2375V23.65V26.0625L24.6688 26.2312C24.8375 26.4 24.8377 26.4 26.3188 26.4H27.8V25.85V25.3H26.7H25.6V24.75V24.2H26.425H27.25V23.65V23.1H26.425H25.6V22.55V22H26.7H27.8V21.45V20.9H26.3188C24.8377 20.9 24.8375 20.9 24.6688 21.0688ZM17.7312 22.1688C17.8376 22.2751 17.9 22.4161 17.9 22.55C17.9 22.6839 17.8376 22.8249 17.7312 22.9312C17.5756 23.0869 17.5114 23.1 16.9062 23.1H16.25V22.55V22H16.9062C17.5114 22 17.5756 22.0131 17.7312 22.1688ZM33.85 24.5812V27.1625L34.0188 27.3312L34.1875 27.5H35.8052H37.4228L38.6597 28.2047C40.24 29.105 40.2547 29.15 38.9688 29.15C38.0717 29.15 38.0313 29.1562 37.8688 29.3188C37.7014 29.4861 37.7 29.4981 37.7 30.8C37.7 32.1019 37.7014 32.1139 37.8688 32.2812C38.0313 32.4438 38.0717 32.45 38.9688 32.45H39.9V33.275V34.1H39.3156C38.8676 34.1 38.7313 34.0781 38.7313 34.0061C38.7313 33.9545 38.6226 33.6951 38.4899 33.4298C38.1966 32.8437 37.7841 32.4465 37.1624 32.152C36.7471 31.9552 36.6406 31.9344 36.05 31.9344C35.4594 31.9344 35.3529 31.9552 34.9376 32.152C34.3159 32.4465 33.9034 32.8437 33.6101 33.4298C33.4774 33.6951 33.3687 33.9545 33.3687 34.0061C33.3687 34.0816 33.1473 34.1 32.2344 34.1H31.1V28.05V22H32.475H33.85V24.5812ZM36.9812 22.1688L37.15 22.3375V24.3688V26.4H36.05H34.95V24.2V22H35.8812C36.7783 22 36.8187 22.0062 36.9812 22.1688ZM34.4 29.15V29.7H35.5H36.6V29.15V28.6H35.5H34.4V29.15ZM39.9 30.8V31.35H39.35H38.8V30.8V30.25H39.35H39.9V30.8ZM30 32.45V34.1H25.2906C21.3563 34.1 20.5813 34.0845 20.5813 34.0061C20.5813 33.9545 20.4726 33.6951 20.3399 33.4298C20.0467 32.8437 19.6341 32.4465 19.0124 32.152C18.5965 31.9549 18.4911 31.9344 17.8964 31.9344C17.2755 31.9344 17.2112 31.9485 16.715 32.1937C16.2002 32.4481 15.7133 32.8903 15.5433 33.2578C15.5039 33.3429 15.4506 33.4125 15.425 33.4125C15.3994 33.4125 15.3461 33.3429 15.3067 33.2578C15.1367 32.8903 14.6498 32.4481 14.135 32.1937C13.6388 31.9485 13.5745 31.9344 12.9536 31.9344C12.3589 31.9344 12.2535 31.9549 11.8376 32.152C11.2159 32.4465 10.8034 32.8437 10.5101 33.4298C10.3774 33.6951 10.2687 33.9545 10.2687 34.0061C10.2687 34.0781 10.1324 34.1 9.68438 34.1H9.1V32.45V30.8H19.55H30V32.45ZM13.4577 33.0836C14.0485 33.2582 14.6 34.0144 14.6 34.65C14.6 35.5019 13.8019 36.3 12.95 36.3C12.5176 36.3 12.1693 36.1428 11.8133 35.7867C11.1177 35.0912 11.1177 34.2096 11.8133 33.5125C12.2956 33.0292 12.815 32.8937 13.4577 33.0836ZM18.4076 33.0836C18.7853 33.1952 19.3548 33.7647 19.4664 34.1424C19.6568 34.787 19.5226 35.3009 19.0367 35.7867C18.6807 36.1428 18.3324 36.3 17.9 36.3C17.0481 36.3 16.25 35.5019 16.25 34.65C16.25 34.2179 16.4073 33.8693 16.7633 33.5125C17.2456 33.0292 17.765 32.8937 18.4076 33.0836ZM36.5577 33.0836C37.1485 33.2582 37.7 34.0144 37.7 34.65C37.7 35.5019 36.9019 36.3 36.05 36.3C35.6176 36.3 35.2693 36.1428 34.9133 35.7867C34.2177 35.0912 34.2177 34.2096 34.9133 33.5125C35.3956 33.0292 35.915 32.8937 36.5577 33.0836ZM12.4 34.65V35.2H12.95H13.5V34.65V34.1H12.95H12.4V34.65ZM17.35 34.65V35.2H17.9H18.45V34.65V34.1H17.9H17.35V34.65ZM35.5 34.65V35.2H36.05H36.6V34.65V34.1H36.05H35.5V34.65ZM33.3687 35.2939C33.3687 35.5141 33.8721 36.3716 34.1539 36.6313C34.4892 36.9405 35.0191 37.2323 35.4138 37.3253C35.5679 37.3616 32.1665 37.3862 26.975 37.3862C21.7836 37.3862 18.3821 37.3616 18.5362 37.3253C18.9309 37.2323 19.4608 36.9405 19.7961 36.6313C20.0779 36.3716 20.5813 35.5141 20.5813 35.2939C20.5813 35.2152 21.6171 35.2 26.975 35.2C32.3329 35.2 33.3687 35.2152 33.3687 35.2939ZM15.5433 36.0422C15.7764 36.5461 16.614 37.1731 17.255 37.3236C17.4346 37.3657 16.8364 37.3862 15.425 37.3862C14.0605 37.3862 13.4183 37.3649 13.5862 37.3253C14.0332 37.22 14.5465 36.9153 14.918 36.5348C15.1153 36.3328 15.2966 36.1045 15.3211 36.0275C15.3789 35.8452 15.4544 35.8502 15.5433 36.0422Z" fill="#11346F"/>
<path fill-rule="evenodd" clip-rule="evenodd" d="M10.75 21.2374L10.9188 21.0687C11.0875 20.8999 11.0877 20.8999 12.5688 20.8999H14.05V21.4499V21.9999H12.95H11.85V22.5499V23.0999H12.675H13.5V23.6499V24.1999H12.675H11.85V25.2999V26.3999H11.3H10.75V23.8187V21.2374ZM15.15 21.2374L15.3188 21.0687C15.4831 20.9043 15.5147 20.8999 16.5311 20.8999C17.8132 20.8999 18.0304 20.9569 18.4867 21.4132C19.0844 22.0109 19.1704 22.7995 18.7098 23.4608C18.5801 23.6471 18.5801 23.6527 18.7098 23.839C18.9466 24.1789 19 24.4752 19 25.4476V26.3999H18.45H17.9V25.4687C17.9 24.5716 17.8938 24.5312 17.7312 24.3687C17.5756 24.213 17.5114 24.1999 16.9062 24.1999H16.25V25.2999V26.3999H15.7H15.15V23.8187V21.2374ZM20.1 21.2374L20.2688 21.0687C20.4375 20.8999 20.4377 20.8999 21.9188 20.8999H23.4V21.4499V21.9999H22.3H21.2V22.5499V23.0999H22.025H22.85V23.6499V24.1999H22.025H21.2V24.7499V25.2999H22.3H23.4V25.8499V26.3999H21.9188C20.4377 26.3999 20.4375 26.3999 20.2688 26.2311L20.1 26.0624V23.6499V21.2374ZM24.5 21.2374L24.6688 21.0687C24.8375 20.8999 24.8377 20.8999 26.3188 20.8999H27.8V21.4499V21.9999H26.7H25.6V22.5499V23.0999H26.425H27.25V23.6499V24.1999H26.425H25.6V24.7499V25.2999H26.7H27.8V25.8499V26.3999H26.3188C24.8377 26.3999 24.8375 26.3999 24.6688 26.2311L24.5 26.0624V23.6499V21.2374ZM17.9 22.5499C17.9 22.416 17.8376 22.275 17.7312 22.1687C17.5756 22.013 17.5114 21.9999 16.9062 21.9999H16.25V22.5499V23.0999H16.9062C17.5114 23.0999 17.5756 23.0868 17.7312 22.9311C17.8376 22.8248 17.9 22.6838 17.9 22.5499Z" fill="white"/>
</g>
<defs>
<clipPath id="clip0_3_12">
<rect width="33" height="28" fill="white" transform="translate(8 11)"/>
</clipPath>
</defs>
</svg>
