<svg width="50" height="50" viewBox="0 0 50 50" fill="none" xmlns="http://www.w3.org/2000/svg">
<circle cx="25" cy="25" r="25" fill="white"/>
<circle cx="25.5" cy="25.5" r="10.5" fill="#197AFF"/>
<path fill-rule="evenodd" clip-rule="evenodd" d="M24.9572 7.05278C24.2842 7.21394 23.6124 7.72548 22.749 8.73396C22.4577 9.07418 22.3967 9.10865 22.0857 9.10865C21.842 9.10865 21.639 9.04207 21.3816 8.87761C20.6791 8.42893 20.2197 8.29145 19.4036 8.28569C18.739 8.28103 18.6099 8.30407 18.2573 8.4903C17.5293 8.87477 16.9714 9.63904 16.6807 10.6502C16.3876 11.6699 16.1596 11.8351 15.2109 11.7152C14.5191 11.6277 13.6244 11.7239 13.141 11.9379C12.0211 12.4335 11.478 13.6303 11.6717 15.1756C11.7355 15.6852 11.7306 15.8796 11.6485 16.0759C11.501 16.4291 11.3837 16.5041 10.7104 16.6764C9.6348 16.9516 8.88494 17.4491 8.46495 18.166C8.29954 18.4484 8.25074 18.65 8.22456 19.1587C8.18696 19.8896 8.34322 20.4708 8.80515 21.3181C9.15883 21.9669 9.17705 22.4283 8.85861 22.6728C8.73932 22.7644 8.45801 22.9789 8.23339 23.1495C7.45302 23.7425 6.99992 24.632 7 25.571C7 26.0482 7.03958 26.2194 7.24748 26.6419C7.48353 27.1217 7.78021 27.4459 8.74878 28.2828C9.1914 28.6652 9.19518 28.9869 8.7666 29.789C8.21187 30.8273 8.06452 31.7707 8.33368 32.5611C8.60742 33.3649 9.51275 34.0508 10.688 34.3446C11.3486 34.5098 11.4732 34.5843 11.6452 34.9169C11.7403 35.1011 11.7459 35.2566 11.6769 35.8119C11.4533 37.6128 12.0977 38.7884 13.5382 39.2073C13.9051 39.3141 14.1959 39.3328 14.9674 39.2995C15.8689 39.2605 15.9536 39.2695 16.1915 39.4292C16.3684 39.5479 16.4789 39.7093 16.5504 39.9533C17.0218 41.5635 17.6481 42.3776 18.6424 42.6731C19.4174 42.9034 20.2222 42.7639 21.217 42.2268C22.1275 41.7354 22.3926 41.7839 22.9961 42.5524C23.7301 43.4872 24.6164 44.0049 25.4744 44C26.4608 43.9943 27.1407 43.5615 28.2819 42.2127C28.6219 41.8107 28.9647 41.8159 29.7885 42.2354C31.2714 42.9906 32.3415 42.9677 33.2226 42.162C33.7204 41.7069 34.0716 41.0888 34.299 40.2678C34.3982 39.9097 34.5383 39.6025 34.6562 39.4844C34.846 39.2946 34.8782 39.2902 36.1346 39.2854C37.3745 39.2806 37.4344 39.2729 37.8652 39.0612C38.9655 38.5205 39.5001 37.2855 39.2867 35.7764C39.2106 35.2374 39.214 35.0905 39.307 34.9106C39.4714 34.5926 39.5641 34.5368 40.3647 34.275C41.2191 33.9957 41.6692 33.7475 42.097 33.3195C42.5302 32.886 42.6893 32.5154 42.7259 31.8548C42.7636 31.1734 42.6168 30.612 42.1816 29.7725C41.9766 29.3772 41.8734 29.0745 41.8734 28.8688C41.8734 28.594 41.9195 28.5193 42.2859 28.2011C43.7962 26.8889 44.2355 25.9747 43.8875 24.8678C43.7149 24.3187 43.1051 23.5039 42.5408 23.0684C42.2985 22.8814 42.0492 22.6554 41.9868 22.5663C41.7886 22.2831 41.8506 21.8634 42.1823 21.2426C42.3521 20.9247 42.5472 20.4719 42.6159 20.2362C42.7567 19.7529 42.7789 18.9827 42.6637 18.5806C42.467 17.8944 41.7296 17.2398 40.7431 16.8757C40.4325 16.761 40.0204 16.6077 39.8274 16.5351C39.5948 16.4475 39.4265 16.3176 39.3288 16.1502C39.1948 15.9206 39.1898 15.8413 39.274 15.2852C39.6377 12.8854 38.1766 11.3826 35.7919 11.7037C35.2933 11.7709 35.1096 11.7667 34.9107 11.6835C34.5713 11.5416 34.5124 11.4517 34.3085 10.7651C33.9761 9.64677 33.3961 8.81987 32.6907 8.45907C32.2967 8.25745 31.5562 8.19474 30.9806 8.31432C30.7369 8.36488 30.2232 8.56429 29.839 8.75731C28.9813 9.18824 28.6371 9.21648 28.3264 8.88131C28.2105 8.75629 27.982 8.47492 27.8187 8.25595C27.1406 7.34693 25.9025 6.8264 24.9572 7.05278ZM25.8988 8.80322C26.0062 8.85221 26.2806 9.12229 26.5087 9.4035C27.2429 10.309 28.0052 10.7764 28.7477 10.7764C29.295 10.7764 29.6974 10.6613 30.6075 10.2444C31.4873 9.84129 31.8212 9.80808 32.1564 10.0903C32.3241 10.2315 32.4121 10.4057 32.4851 10.7411C32.7516 11.9665 33.5209 12.9583 34.4343 13.2544C34.8149 13.3777 35.0955 13.4007 36.0321 13.3852C37.308 13.3643 37.4842 13.4176 37.5985 13.859C37.6345 13.9983 37.633 14.3264 37.5949 14.5882C37.5068 15.1932 37.5661 16.1479 37.7189 16.5869C38.0191 17.4496 38.6157 17.9354 39.9246 18.3833C40.5137 18.5848 40.8223 18.7347 40.9299 18.8715C41.1742 19.1823 41.1291 19.5841 40.7757 20.2445C39.8337 22.0044 40.0766 23.2617 41.5969 24.4958C41.9574 24.7884 42.1431 25.0056 42.232 25.2387C42.4126 25.7117 42.2823 25.9682 41.5975 26.4883C40.0654 27.6521 39.8114 28.9814 40.7762 30.7872C41.253 31.6795 41.1654 32.1437 40.4632 32.4459C40.2471 32.5389 40.0237 32.616 39.9667 32.6172C39.7368 32.6219 38.7665 33.0958 38.4423 33.3614C37.9258 33.7849 37.6218 34.4588 37.5679 35.3001C37.5444 35.6672 37.5564 36.1816 37.5946 36.4434C37.6779 37.0142 37.5962 37.3873 37.358 37.5236C37.2376 37.5924 36.7986 37.6252 35.9603 37.628C34.8829 37.6315 34.6849 37.6531 34.2872 37.8103C33.4455 38.143 32.8146 38.9814 32.5194 40.1599C32.3543 40.8191 32.0841 41.1342 31.6839 41.1342C31.5339 41.1342 31.0379 40.965 30.5544 40.7488C29.4611 40.2601 28.9367 40.1451 28.3536 40.2662C27.8035 40.3805 27.1571 40.8482 26.5415 41.5776C26.0314 42.182 25.8544 42.3105 25.5258 42.3146C25.1625 42.3191 24.8303 42.1034 24.4101 41.5903C23.9225 40.9949 23.2427 40.4821 22.7625 40.3476C22.5411 40.2856 22.1682 40.2606 21.8089 40.2837C21.3008 40.3162 21.1027 40.378 20.3835 40.7278C19.9241 40.9513 19.4475 41.1342 19.3243 41.1342C18.9636 41.1342 18.6524 40.8026 18.4155 40.1661C17.8721 38.7057 17.5384 38.1993 16.9052 37.8741C16.4677 37.6494 15.7742 37.5632 14.8576 37.6197C14.1361 37.6642 13.9332 37.6517 13.7384 37.5509C13.6075 37.4832 13.4717 37.3833 13.4364 37.3287C13.4011 37.2742 13.3707 36.6794 13.3687 36.0069C13.3657 34.9605 13.3416 34.7259 13.2024 34.3795C12.856 33.5177 12.228 32.9967 11.1128 32.6461C10.2338 32.3699 10.1062 32.303 9.9754 32.0499C9.79958 31.7097 9.84247 31.3973 10.139 30.8575C10.7149 29.8092 10.8769 28.8678 10.6111 28.1139C10.4414 27.6329 9.93795 26.997 9.34719 26.5178C8.72899 26.0164 8.50745 25.5732 8.68863 25.2005C8.74957 25.0751 9.04727 24.7652 9.3501 24.5117C10.8956 23.2186 11.1253 22.0274 10.1727 20.2445C9.82662 19.5969 9.79083 19.2867 10.0188 18.9126C10.1409 18.7124 10.2685 18.6328 10.6295 18.5327C11.7523 18.2209 12.4427 17.8257 12.8629 17.254C13.2948 16.6664 13.3609 16.3702 13.3668 14.9983L13.3723 13.7493L13.59 13.5618C13.8008 13.3802 13.846 13.3747 15.0091 13.3909C16.0391 13.4053 16.2706 13.3854 16.6314 13.2515C17.4481 12.9486 17.871 12.3962 18.3479 11.0097C18.7582 9.81668 19.1562 9.64464 20.2057 10.2069C21.0065 10.6359 21.5969 10.7931 22.236 10.7472C23.035 10.6897 23.5665 10.3653 24.4032 9.42417C24.654 9.14217 24.9355 8.8683 25.0288 8.81561C25.2443 8.69397 25.6465 8.68829 25.8988 8.80322ZM23.6611 13.8786C21.086 14.3132 18.898 15.4461 17.0943 17.2785C14.8989 19.5091 13.7271 22.3756 13.7271 25.5158C13.7271 31.084 17.5607 35.8216 23.0545 37.0425C24.1904 37.295 26.19 37.3327 27.406 37.1246C29.8762 36.7019 32.0526 35.5714 33.8024 33.8022C35.442 32.1443 36.4844 30.2231 37.0064 27.8967C37.152 27.2479 37.1778 26.8891 37.1778 25.5158C37.1778 24.1425 37.152 23.7837 37.0064 23.135C36.7599 22.0364 36.4849 21.2581 35.994 20.2702C34.3338 16.9293 31.1315 14.5456 27.4574 13.9159C26.4154 13.7374 24.6033 13.7195 23.6611 13.8786ZM27.6031 15.6474C29.5672 16.0953 31.1442 16.9695 32.5803 18.4064C34.0439 19.8706 34.9402 21.5173 35.3768 23.5438C35.5788 24.4813 35.5788 26.5503 35.3768 27.4878C34.9402 29.5143 34.0439 31.161 32.5803 32.6252C31.1172 34.0891 29.4745 34.9844 27.4455 35.4237C26.4513 35.639 24.3572 35.6225 23.3764 35.3917C21.333 34.9108 19.8146 34.072 18.3685 32.6252C16.905 31.161 16.0087 29.5143 15.572 27.4878C15.37 26.5503 15.37 24.4813 15.572 23.5438C16.0128 21.4979 16.8875 19.8935 18.3712 18.4091C19.5299 17.2498 20.6367 16.5354 22.0755 16.0183C22.6746 15.803 23.7737 15.5365 24.3312 15.4713C25.0132 15.3916 26.9349 15.495 27.6031 15.6474Z" fill="#11346F"/>
<mask id="mask0_0_224" style="mask-type:alpha" maskUnits="userSpaceOnUse" x="16" y="18" width="18" height="15">
<path d="M23 32L17.5 26L17 25L20 23L23.5 21.5L28.5 19L32.5 21L32 23.5L28.5 31L23 32Z" fill="#C4C4C4" stroke="black"/>
</mask>
<g mask="url(#mask0_0_224)">
<path fill-rule="evenodd" clip-rule="evenodd" d="M24.9572 7.05278C24.2842 7.21394 23.6124 7.72548 22.749 8.73396C22.4577 9.07418 22.3967 9.10865 22.0857 9.10865C21.842 9.10865 21.639 9.04207 21.3816 8.87761C20.6791 8.42893 20.2197 8.29145 19.4036 8.28569C18.739 8.28103 18.6099 8.30407 18.2573 8.4903C17.5293 8.87477 16.9714 9.63904 16.6807 10.6502C16.3876 11.6699 16.1596 11.8351 15.2109 11.7152C14.5191 11.6277 13.6244 11.7239 13.141 11.9379C12.0211 12.4335 11.478 13.6303 11.6717 15.1756C11.7355 15.6852 11.7306 15.8796 11.6485 16.0759C11.501 16.4291 11.3837 16.5041 10.7104 16.6764C9.6348 16.9516 8.88494 17.4491 8.46495 18.166C8.29954 18.4484 8.25074 18.65 8.22456 19.1587C8.18696 19.8896 8.34322 20.4708 8.80515 21.3181C9.15883 21.9669 9.17705 22.4283 8.85861 22.6728C8.73932 22.7644 8.45801 22.9789 8.23339 23.1495C7.45302 23.7425 6.99992 24.632 7 25.571C7 26.0482 7.03958 26.2194 7.24748 26.6419C7.48353 27.1217 7.78021 27.4459 8.74878 28.2828C9.1914 28.6652 9.19518 28.9869 8.7666 29.789C8.21187 30.8273 8.06452 31.7707 8.33368 32.5611C8.60742 33.3649 9.51275 34.0508 10.688 34.3446C11.3486 34.5098 11.4732 34.5843 11.6452 34.9169C11.7403 35.1011 11.7459 35.2566 11.6769 35.8119C11.4533 37.6128 12.0977 38.7884 13.5382 39.2073C13.9051 39.3141 14.1959 39.3328 14.9674 39.2995C15.8689 39.2605 15.9536 39.2695 16.1915 39.4292C16.3684 39.5479 16.4789 39.7093 16.5504 39.9533C17.0218 41.5635 17.6481 42.3776 18.6424 42.6731C19.4174 42.9034 20.2222 42.7639 21.217 42.2268C22.1275 41.7354 22.3926 41.7839 22.9961 42.5524C23.7301 43.4872 24.6164 44.0049 25.4744 44C26.4608 43.9943 27.1407 43.5615 28.2819 42.2127C28.6219 41.8107 28.9647 41.8159 29.7885 42.2354C31.2714 42.9906 32.3415 42.9677 33.2226 42.162C33.7204 41.7069 34.0716 41.0888 34.299 40.2678C34.3982 39.9097 34.5383 39.6025 34.6562 39.4844C34.846 39.2946 34.8782 39.2902 36.1346 39.2854C37.3745 39.2806 37.4344 39.2729 37.8652 39.0612C38.9655 38.5205 39.5001 37.2855 39.2867 35.7764C39.2106 35.2374 39.214 35.0905 39.307 34.9106C39.4714 34.5926 39.5641 34.5368 40.3647 34.275C41.2191 33.9957 41.6692 33.7475 42.097 33.3195C42.5302 32.886 42.6893 32.5154 42.7259 31.8548C42.7636 31.1734 42.6168 30.612 42.1816 29.7725C41.9766 29.3772 41.8734 29.0745 41.8734 28.8688C41.8734 28.594 41.9195 28.5193 42.2859 28.2011C43.7962 26.8889 44.2355 25.9747 43.8875 24.8678C43.7149 24.3187 43.1051 23.5039 42.5408 23.0684C42.2985 22.8814 42.0492 22.6554 41.9868 22.5663C41.7886 22.2831 41.8506 21.8634 42.1823 21.2426C42.3521 20.9247 42.5472 20.4719 42.6159 20.2362C42.7567 19.7529 42.7789 18.9827 42.6637 18.5806C42.467 17.8944 41.7296 17.2398 40.7431 16.8757C40.4325 16.761 40.0204 16.6077 39.8274 16.5351C39.5948 16.4475 39.4265 16.3176 39.3288 16.1502C39.1948 15.9206 39.1898 15.8413 39.274 15.2852C39.6377 12.8854 38.1766 11.3826 35.7919 11.7037C35.2933 11.7709 35.1096 11.7667 34.9107 11.6835C34.5713 11.5416 34.5124 11.4517 34.3085 10.7651C33.9761 9.64677 33.3961 8.81987 32.6907 8.45907C32.2967 8.25745 31.5562 8.19474 30.9806 8.31432C30.7369 8.36488 30.2232 8.56429 29.839 8.75731C28.9813 9.18824 28.6371 9.21648 28.3264 8.88131C28.2105 8.75629 27.982 8.47492 27.8187 8.25595C27.1406 7.34693 25.9025 6.8264 24.9572 7.05278ZM25.8988 8.80322C26.0062 8.85221 26.2806 9.12229 26.5087 9.4035C27.2429 10.309 28.0052 10.7764 28.7477 10.7764C29.295 10.7764 29.6974 10.6613 30.6075 10.2444C31.4873 9.84129 31.8212 9.80808 32.1564 10.0903C32.3241 10.2315 32.4121 10.4057 32.4851 10.7411C32.7516 11.9665 33.5209 12.9583 34.4343 13.2544C34.8149 13.3777 35.0955 13.4007 36.0321 13.3852C37.308 13.3643 37.4842 13.4176 37.5985 13.859C37.6345 13.9983 37.633 14.3264 37.5949 14.5882C37.5068 15.1932 37.5661 16.1479 37.7189 16.5869C38.0191 17.4496 38.6157 17.9354 39.9246 18.3833C40.5137 18.5848 40.8223 18.7347 40.9299 18.8715C41.1742 19.1823 41.1291 19.5841 40.7757 20.2445C39.8337 22.0044 40.0766 23.2617 41.5969 24.4958C41.9574 24.7884 42.1431 25.0056 42.232 25.2387C42.4126 25.7117 42.2823 25.9682 41.5975 26.4883C40.0654 27.6521 39.8114 28.9814 40.7762 30.7872C41.253 31.6795 41.1654 32.1437 40.4632 32.4459C40.2471 32.5389 40.0237 32.616 39.9667 32.6172C39.7368 32.6219 38.7665 33.0958 38.4423 33.3614C37.9258 33.7849 37.6218 34.4588 37.5679 35.3001C37.5444 35.6672 37.5564 36.1816 37.5946 36.4434C37.6779 37.0142 37.5962 37.3873 37.358 37.5236C37.2376 37.5924 36.7986 37.6252 35.9603 37.628C34.8829 37.6315 34.6849 37.6531 34.2872 37.8103C33.4455 38.143 32.8146 38.9814 32.5194 40.1599C32.3543 40.8191 32.0841 41.1342 31.6839 41.1342C31.5339 41.1342 31.0379 40.965 30.5544 40.7488C29.4611 40.2601 28.9367 40.1451 28.3536 40.2662C27.8035 40.3805 27.1571 40.8482 26.5415 41.5776C26.0314 42.182 25.8544 42.3105 25.5258 42.3146C25.1625 42.3191 24.8303 42.1034 24.4101 41.5903C23.9225 40.9949 23.2427 40.4821 22.7625 40.3476C22.5411 40.2856 22.1682 40.2606 21.8089 40.2837C21.3008 40.3162 21.1027 40.378 20.3835 40.7278C19.9241 40.9513 19.4475 41.1342 19.3243 41.1342C18.9636 41.1342 18.6524 40.8026 18.4155 40.1661C17.8721 38.7057 17.5384 38.1993 16.9052 37.8741C16.4677 37.6494 15.7742 37.5632 14.8576 37.6197C14.1361 37.6642 13.9332 37.6517 13.7384 37.5509C13.6075 37.4832 13.4717 37.3833 13.4364 37.3287C13.4011 37.2742 13.3707 36.6794 13.3687 36.0069C13.3657 34.9605 13.3416 34.7259 13.2024 34.3795C12.856 33.5177 12.228 32.9967 11.1128 32.6461C10.2338 32.3699 10.1062 32.303 9.9754 32.0499C9.79958 31.7097 9.84247 31.3973 10.139 30.8575C10.7149 29.8092 10.8769 28.8678 10.6111 28.1139C10.4414 27.6329 9.93795 26.997 9.34719 26.5178C8.72899 26.0164 8.50745 25.5732 8.68863 25.2005C8.74957 25.0751 9.04727 24.7652 9.3501 24.5117C10.8956 23.2186 11.1253 22.0274 10.1727 20.2445C9.82662 19.5969 9.79083 19.2867 10.0188 18.9126C10.1409 18.7124 10.2685 18.6328 10.6295 18.5327C11.7523 18.2209 12.4427 17.8257 12.8629 17.254C13.2948 16.6664 13.3609 16.3702 13.3668 14.9983L13.3723 13.7493L13.59 13.5618C13.8008 13.3802 13.846 13.3747 15.0091 13.3909C16.0391 13.4053 16.2706 13.3854 16.6314 13.2515C17.4481 12.9486 17.871 12.3962 18.3479 11.0097C18.7582 9.81668 19.1562 9.64464 20.2057 10.2069C21.0065 10.6359 21.5969 10.7931 22.236 10.7472C23.035 10.6897 23.5665 10.3653 24.4032 9.42417C24.654 9.14217 24.9355 8.8683 25.0288 8.81561C25.2443 8.69397 25.6465 8.68829 25.8988 8.80322ZM23.6611 13.8786C21.086 14.3132 18.898 15.4461 17.0943 17.2785C14.8989 19.5091 13.7271 22.3756 13.7271 25.5158C13.7271 31.084 17.5607 35.8216 23.0545 37.0425C24.1904 37.295 26.19 37.3327 27.406 37.1246C29.8762 36.7019 32.0526 35.5714 33.8024 33.8022C35.442 32.1443 36.4844 30.2231 37.0064 27.8967C37.152 27.2479 37.1778 26.8891 37.1778 25.5158C37.1778 24.1425 37.152 23.7837 37.0064 23.135C36.7599 22.0364 36.4849 21.2581 35.994 20.2702C34.3338 16.9293 31.1315 14.5456 27.4574 13.9159C26.4154 13.7374 24.6033 13.7195 23.6611 13.8786ZM27.6031 15.6474C29.5672 16.0953 31.1442 16.9695 32.5803 18.4064C34.0439 19.8706 34.9402 21.5173 35.3768 23.5438C35.5788 24.4813 35.5788 26.5503 35.3768 27.4878C34.9402 29.5143 34.0439 31.161 32.5803 32.6252C31.1172 34.0891 29.4745 34.9844 27.4455 35.4237C26.4513 35.639 24.3572 35.6225 23.3764 35.3917C21.333 34.9108 19.8146 34.072 18.3685 32.6252C16.905 31.161 16.0087 29.5143 15.572 27.4878C15.37 26.5503 15.37 24.4813 15.572 23.5438C16.0128 21.4979 16.8875 19.8935 18.3712 18.4091C19.5299 17.2498 20.6367 16.5354 22.0755 16.0183C22.6746 15.803 23.7737 15.5365 24.3312 15.4713C25.0132 15.3916 26.9349 15.495 27.6031 15.6474ZM26.996 24.5072L23.822 27.6792L22.3421 26.213C21.244 25.125 20.7971 24.7326 20.6097 24.692C20.0474 24.57 19.4837 25.1338 19.6047 25.697C19.6456 25.8871 20.0908 26.3856 21.4038 27.7113C22.3634 28.6802 23.2444 29.5232 23.3615 29.5847C23.4786 29.6461 23.7083 29.6965 23.8719 29.6965C24.1588 29.6965 24.2939 29.5722 27.6684 26.206C29.7419 24.1376 31.2138 22.6083 31.2813 22.4524C31.514 21.9153 31.1042 21.3351 30.4922 21.3351C30.1731 21.3351 30.1392 21.366 26.996 24.5072Z" fill="white"/>
</g>
</svg>
