<svg width="303" height="6" viewBox="0 0 303 6" fill="none" xmlns="http://www.w3.org/2000/svg">
<path fill-rule="evenodd" clip-rule="evenodd" d="M207.777 0.856624C207.841 0.781266 207.876 0.69691 207.876 0.607854C207.876 0.288336 207.417 0.0293164 206.85 0.0293164C193.223 0.0293164 179.595 0.0227845 165.966 0.0162523C138.706 0.00318692 111.445 -0.00987953 84.1849 0.0293183C82.0173 0.0324352 79.8264 0.0238004 77.6212 0.0151095C69.8204 -0.0156347 61.8414 -0.0470811 54.0882 0.43851C53.4957 0.475618 53.0313 0.510872 52.6926 0.545056C52.5251 0.561968 52.3683 0.580581 52.2338 0.602071C52.1667 0.612789 52.0886 0.626804 52.0096 0.645406C51.9444 0.660756 51.8107 0.69453 51.6788 0.757598C51.5629 0.812975 51.2409 0.995065 51.3063 1.2894C51.3654 1.55501 51.6995 1.68657 51.7884 1.71935C51.9949 1.79549 52.2253 1.82323 52.3095 1.83337L52.3117 1.83364C52.5549 1.86293 52.8903 1.88342 53.2619 1.89981C54.7779 1.96666 57.7549 1.99824 61.2705 2.01184C65.7595 2.02921 71.2135 2.01725 75.7921 2.00721C78.4016 2.00149 80.7267 1.99639 82.4269 1.9977C103.957 2.01428 125.488 2.02073 147.018 2.02169C127.736 2.29072 108.456 2.61968 89.1816 3.04244C66.914 3.10141 45.9027 3.15658 28.7744 3.20155C17.6433 3.23078 8.15206 3.2557 1.02155 3.27456C0.454712 3.27606 -0.00264816 3.53629 1.15417e-05 3.85581C0.00267117 4.17532 0.464344 4.43312 1.03119 4.43162C8.16152 4.41277 17.6526 4.38784 28.7836 4.35862C32.5418 4.34875 36.487 4.33839 40.5914 4.32761C39.8046 4.3523 39.0177 4.3772 38.2309 4.4023C31.523 4.61632 28.0983 4.73877 26.8909 4.79911C26.7386 4.80673 26.6124 4.81379 26.5154 4.82039C26.4676 4.82364 26.4182 4.82735 26.3722 4.83166L26.3691 4.83195C26.3424 4.83443 26.2439 4.84355 26.1403 4.86473C26.1084 4.87125 26.0433 4.88536 25.9679 4.91011C25.9209 4.92556 25.7205 4.99139 25.5829 5.13231C25.5241 5.20349 25.4581 5.36936 25.4592 5.46151C25.4852 5.55049 25.5935 5.70198 25.6662 5.76335C25.8263 5.88168 26.0213 5.93049 26.0688 5.94238C26.1924 5.97331 26.3019 5.98358 26.3264 5.98588L26.3286 5.98609C26.3707 5.99008 26.4073 5.99224 26.431 5.99346C26.5172 5.99789 26.6233 5.99917 26.7178 5.99969C27.1209 6.00194 27.9392 5.99168 29.0121 5.97378C31.9853 5.92415 37.0968 5.81232 41.483 5.71635C43.4662 5.67296 45.301 5.63281 46.723 5.60313C87.7179 4.74729 128.751 4.26648 169.787 3.98316C195.299 3.91336 218.175 3.84895 234.043 3.8006C256.181 3.73315 267.966 3.68951 273.064 3.66236C274.338 3.65557 275.198 3.6498 275.698 3.64492C275.942 3.64253 276.116 3.64023 276.208 3.63778C276.229 3.63723 276.265 3.63621 276.301 3.63418C276.31 3.63374 276.375 3.63036 276.449 3.62029C276.513 3.61036 276.753 3.54866 276.91 3.4808C277.221 3.16 276.93 2.64451 276.654 2.53524C276.567 2.51453 276.438 2.49286 276.398 2.48814C276.375 2.48586 276.338 2.48278 276.322 2.48172C276.294 2.47985 276.269 2.4789 276.257 2.47845C276.229 2.47745 276.2 2.47681 276.176 2.47636C275.818 2.46972 274.244 2.46676 271.953 2.46602C262.737 2.46303 241.456 2.49669 237.47 2.50833C219.109 2.56195 200.742 2.63558 182.374 2.74512C192.351 2.63726 202.328 2.5399 212.304 2.44835C237.469 2.21744 250.83 2.13177 275.385 2.04276C281.138 2.02191 286.892 2.01263 292.648 2.00334C293.795 2.00149 294.942 1.99964 296.09 1.9977H302.006C302.249 1.9977 302.378 1.99765 302.405 1.99755L302.417 1.99748C302.417 1.99748 302.427 1.99741 302.439 1.99718C302.448 1.99696 302.486 1.99561 302.515 1.99407C303.252 1.74376 303.066 0.977636 302.51 0.843619C302.484 0.842261 302.448 0.841033 302.439 0.840828L302.425 0.840587L302.414 0.840484L302.405 0.840434L302.364 0.840343L302.192 0.840158C301.883 0.839896 301.267 0.839583 300.527 0.839375C299.049 0.838957 297.076 0.838956 296.087 0.840626H293.849C270.357 0.840626 246.866 0.846656 223.374 0.852686C218.175 0.854021 212.976 0.855355 207.777 0.856624ZM26.7132 5.97269C26.7014 5.97399 26.6988 5.97401 26.709 5.97306C26.7097 5.97299 26.7111 5.97286 26.7132 5.97269ZM52.7095 0.697672C52.71 0.697584 52.717 0.6985 52.7292 0.700682C52.7151 0.69885 52.709 0.69776 52.7095 0.697672Z" fill="#F6F8FC"/>
</svg>
