<svg width="36" height="36" viewBox="0 0 36 36" fill="none" xmlns="http://www.w3.org/2000/svg">
<path d="M33.6026 0.782227C33.837 0.957431 33.8745 1.17013 33.7764 1.44483C33.5349 2.12186 33.3128 2.8061 33.0842 3.48745C33.0446 3.60425 33.0085 3.72177 32.9581 3.88039C33.5695 3.88039 34.1391 3.86381 34.7079 3.88977C34.8781 3.8977 35.1088 3.97989 35.1889 4.10607C35.2566 4.21206 35.1889 4.46008 35.1052 4.59635C33.6942 6.85599 32.2695 9.1077 30.8513 11.3623C30.7215 11.5685 30.5766 11.7531 30.3026 11.6435C30.0286 11.5339 30.0502 11.3097 30.0928 11.0667C30.3588 9.54823 30.6155 8.02763 30.8751 6.50847C30.8823 6.46593 30.8844 6.42267 30.8917 6.34913C30.4324 6.34913 29.9875 6.34913 29.5426 6.34913C29.1331 6.34913 28.9781 6.14868 29.0899 5.75213C29.5191 4.22552 29.9546 2.70059 30.3963 1.17734C30.4381 1.03314 30.5621 0.91489 30.6472 0.784387L33.6026 0.782227ZM31.0791 1.56091L29.9313 5.59278C30.4143 5.59278 30.8369 5.58846 31.2594 5.59278C31.6502 5.59783 31.79 5.77664 31.7201 6.16527C31.5932 6.87402 31.4649 7.58205 31.3416 8.2908C31.2853 8.61309 31.2406 8.9397 31.1909 9.25983L31.263 9.27569L34.1852 4.63457C33.5637 4.63457 33.0165 4.64106 32.4692 4.63457C32.1239 4.6288 31.9746 4.41827 32.0799 4.08949C32.2536 3.54585 32.4404 3.00797 32.6228 2.46506C32.7216 2.168 32.8153 1.86951 32.9206 1.54433C32.3344 1.54433 31.7965 1.54433 31.2586 1.54433C31.206 1.54289 31.1498 1.5537 31.077 1.56091H31.0791Z" fill="#262626"/>
<path d="M4.5888 0.782227C4.86062 0.952384 4.8772 1.17734 4.77554 1.46286C4.49723 2.24731 4.23839 3.03753 3.95359 3.88039C4.55491 3.88039 5.12018 3.86525 5.68401 3.88904C5.85777 3.89625 6.12238 3.96475 6.17502 4.08156C6.23991 4.22576 6.17934 4.48388 6.08417 4.63601C4.68638 6.87738 3.27681 9.1125 1.85546 11.3414C1.74663 11.504 1.57835 11.6173 1.38681 11.6572C1.14094 11.6889 1.0263 11.4351 1.09336 11.0523C1.23756 10.208 1.38897 9.3651 1.53606 8.5208C1.65935 7.81277 1.78048 7.10474 1.91026 6.35129C1.47405 6.35129 1.0537 6.37219 0.63696 6.34191C0.437962 6.32749 0.246174 6.21574 0.0507812 6.14868V5.80476C0.0798934 5.74382 0.105413 5.68123 0.127208 5.6173C0.538182 4.18178 0.947714 2.74697 1.36301 1.31793C1.41853 1.13047 1.5411 0.961755 1.63195 0.784387L4.5888 0.782227ZM5.19156 4.63457C4.59745 4.63457 4.09347 4.63457 3.59021 4.63457C3.08694 4.63457 2.96221 4.44711 3.12371 3.96331C3.33569 3.32378 3.55632 2.68568 3.76685 2.04687C3.81876 1.89041 3.86563 1.73179 3.91466 1.57245C3.87946 1.56023 3.84328 1.55106 3.80651 1.54505C3.41716 1.54505 3.02782 1.53496 2.63848 1.54505C1.96073 1.55803 2.12584 1.42969 1.9391 2.06706C1.59662 3.225 1.27577 4.38942 0.933294 5.59278C1.38825 5.59278 1.8086 5.59278 2.23111 5.59278C2.65362 5.59278 2.787 5.74996 2.72355 6.16959C2.67597 6.48611 2.60964 6.79975 2.55556 7.11483C2.42962 7.84161 2.30465 8.56862 2.18064 9.29588L2.24048 9.31967L5.19156 4.63457Z" fill="#262626"/>
<path d="M23.7074 35.2264V22.8705H20.4766C20.5184 23.8886 20.1947 24.7596 19.3806 25.4034C18.8664 25.8169 18.2194 26.0296 17.5601 26.0019C15.9897 25.9528 15.0863 24.9247 14.8051 22.8684H11.5851V23.2786C11.5851 26.0516 11.5851 28.8246 11.5851 31.5976C11.5851 32.0684 11.4597 32.2746 11.1821 32.2645C10.9167 32.2544 10.8079 32.0648 10.8079 31.6048C10.8079 30.1376 10.8021 28.671 10.8129 27.2067C10.8208 27.1008 10.7988 26.9948 10.7495 26.9007C10.7002 26.8067 10.6255 26.7283 10.5339 26.6746C8.94766 25.569 7.36457 24.4565 5.78461 23.337C4.33178 22.3125 3.94027 20.7558 4.73914 19.1725C5.9353 16.8047 7.14443 14.4434 8.32904 12.0691C8.78039 11.1657 9.46246 10.7237 10.4776 10.8254C10.5332 10.8304 10.5894 10.8254 10.6471 10.8254C10.7668 10.3589 10.8554 9.89889 11.0025 9.45547C11.7892 7.1021 13.4741 5.79347 15.8665 5.32482C17.1203 5.07896 18.3799 5.12654 19.6243 5.34789C20.5674 5.51517 21.1759 6.12514 21.4636 7.05019C21.499 7.16339 21.615 7.31191 21.7174 7.33282C23.1183 7.62627 23.8884 8.56358 24.3131 9.85202C24.4198 10.175 24.4861 10.511 24.5596 10.7951C24.9475 10.8254 25.3268 10.8131 25.6858 10.8939C26.2136 11.0114 26.6073 11.351 26.8524 11.8312C28.1214 14.3288 29.3969 16.8242 30.6435 19.3297C31.3306 20.7126 30.9413 22.2685 29.7062 23.1914C29.0097 23.7127 28.2858 24.1965 27.5771 24.7019C27.355 24.8605 27.1444 24.8807 26.9865 24.6384C26.8286 24.3962 26.9339 24.2152 27.1545 24.0616C27.8039 23.6127 28.4504 23.1587 29.0941 22.6996C30.2174 21.9022 30.5072 20.7378 29.8872 19.5049C28.9708 17.6886 28.0493 15.8746 27.1163 14.0331L25.0816 15.199C25.1393 15.3194 25.1905 15.429 25.2446 15.5372L27.5057 20.0074C27.7184 20.4285 27.6888 20.5402 27.3002 20.8005C26.4516 21.3622 25.608 21.9253 24.7507 22.4812C24.5827 22.5908 24.4962 22.7025 24.4969 22.9181C24.5036 26.9173 24.5056 30.9165 24.5027 34.9157C24.5027 35.0051 24.5142 35.0952 24.5236 35.2264H30.058C30.1611 35.2264 30.2895 35.1904 30.3623 35.238C30.4971 35.3266 30.6651 35.4478 30.7019 35.5862C30.7596 35.8025 30.5945 35.9467 30.3724 35.977C30.2698 35.9859 30.1667 35.9876 30.0638 35.982H5.24457C4.75501 35.982 4.56538 35.8732 4.59566 35.5855C4.63532 35.1594 4.96915 35.225 5.24457 35.225C11.2371 35.225 17.2299 35.225 23.2229 35.225L23.7074 35.2264ZM13.4352 12.6942C13.4352 14.0216 13.4352 15.3259 13.4352 16.6302C13.4352 16.7676 13.446 16.9048 13.4677 17.0405C13.8116 19.1573 15.7864 20.7746 17.8391 20.6231C20.1709 20.4508 21.9013 18.6548 21.9157 16.3851C21.9222 15.354 21.9063 14.323 21.9229 13.2919C21.9287 12.9516 21.8912 12.6957 21.5429 12.5161C21.3194 12.4008 21.1269 12.1859 20.9762 11.9761C20.6525 11.5219 20.3641 11.0388 20.0541 10.5622C18.0497 11.8045 15.7446 12.2371 13.4352 12.6942ZM12.6363 15.6244V12.6171C12.6363 12.085 12.6983 12.0403 13.2218 11.93C14.472 11.6639 15.7287 11.4166 16.9609 11.0799C18.0518 10.7821 19.1175 10.3877 19.9935 9.61697C20.2437 9.40067 20.4982 9.49224 20.6424 9.81453C20.8335 10.2291 21.0108 10.6523 21.2387 11.0467C21.5098 11.5168 21.853 11.9321 22.3923 12.1282C22.6245 12.2112 22.6735 12.395 22.672 12.6214C22.6663 13.4809 22.672 14.3403 22.672 15.199C22.677 15.2865 22.6869 15.3736 22.7016 15.46C23.14 15.1947 23.4017 14.8183 23.5935 14.2869C23.7103 13.9639 23.4637 13.775 23.3707 13.5313C23.0859 12.7836 23.1666 12.0994 23.6728 11.4685C23.7449 11.3791 23.8386 11.2385 23.817 11.1527C23.6353 10.5204 23.4918 9.86356 23.2085 9.2781C22.853 8.54484 22.1911 8.14972 21.3677 8.07258C20.8738 8.02643 20.8133 7.9774 20.7606 7.47847C20.6885 6.77188 20.1045 6.16551 19.408 6.08043C18.4412 5.96291 17.4743 5.86413 16.4995 6.00833C15.2997 6.17849 14.1822 6.54476 13.2485 7.34869C12.2095 8.24274 11.7163 9.42879 11.4611 10.7417C11.4005 11.0525 11.42 11.2904 11.6666 11.5349C11.9745 11.842 12.0826 12.2559 12.0992 12.6971C12.1187 13.2018 11.8901 13.6243 11.676 14.0548C11.6233 14.1593 11.5613 14.3014 11.5916 14.3973C11.7603 14.9193 12.0574 15.3519 12.6363 15.6244ZM8.20142 14.0432C8.15311 14.1326 8.11346 14.2019 8.07741 14.2725C7.18432 16.0361 6.29171 17.8004 5.39959 19.5654C4.80187 20.7537 5.10614 21.9282 6.20063 22.6989C7.62341 23.6997 9.04644 24.6995 10.4697 25.6983C10.5598 25.7618 10.6536 25.8187 10.7689 25.8944C10.7857 25.8431 10.7976 25.7902 10.8043 25.7365C10.8043 24.7747 10.8158 23.8122 10.7963 22.8525C10.7963 22.7285 10.6665 22.5699 10.5533 22.492C9.71265 21.9152 8.8597 21.3607 8.0118 20.7969C7.61885 20.5359 7.59001 20.4314 7.80198 20.0103C8.55375 18.5202 9.30649 17.0301 10.0602 15.54C10.115 15.4312 10.1676 15.3237 10.2282 15.1961L8.20142 14.0432ZM24.1357 15.0325C23.5956 15.8018 23.5935 15.7975 22.809 16.2719C22.7696 16.3059 22.7375 16.3476 22.7148 16.3945C22.6921 16.4413 22.6793 16.4924 22.6771 16.5444C22.5913 18.1364 21.9128 19.414 20.6583 20.3939C20.5862 20.4523 20.4823 20.5381 20.4802 20.6195C20.4636 21.1055 20.4715 21.5922 20.4715 22.094C21.0166 22.094 21.5076 22.094 21.9986 22.094C22.6511 22.094 23.3447 22.2252 23.9453 22.045C24.5459 21.8647 25.047 21.3701 25.5921 21.0125C25.9807 20.7565 26.3686 20.4991 26.7688 20.2338L24.1357 15.0325ZM8.54174 20.2345C9.20146 20.6671 9.85758 21.05 10.451 21.5093C11.0128 21.9612 11.729 22.1756 12.4467 22.107C13.229 22.0507 14.0185 22.094 14.8383 22.094C14.8383 21.8092 14.8138 21.5569 14.8433 21.3117C14.9082 20.7854 14.7424 20.4249 14.3134 20.0629C13.2903 19.1977 12.7827 18.0376 12.6616 16.7052C12.6522 16.6028 12.6104 16.437 12.5462 16.4168C11.9074 16.2099 11.4589 15.7751 11.0883 15.2026L8.54174 20.2345ZM19.682 20.9786C18.3265 21.5323 16.9703 21.5273 15.5932 20.9541C15.5932 21.6751 15.5932 22.3507 15.5932 23.0255C15.5909 23.1285 15.594 23.2315 15.6026 23.3341C15.7165 24.4156 16.5327 25.19 17.5998 25.2369C18.1035 25.2598 18.5971 25.0903 18.9805 24.7628C19.3639 24.4354 19.6085 23.9744 19.6647 23.4733C19.7534 22.66 19.682 21.8344 19.682 20.9786ZM10.5894 14.5241C10.8381 14.0014 11.1085 13.5248 11.2938 13.0172C11.4842 12.4967 11.1612 11.8939 10.6406 11.6596C10.146 11.4368 9.50068 11.599 9.21372 12.0648C8.96497 12.4686 8.76958 12.9048 8.53669 13.3532L10.5894 14.5241ZM26.7674 13.359C26.5806 12.9855 26.4133 12.6503 26.2446 12.315C26.2092 12.2434 26.1702 12.1736 26.1278 12.1059C25.981 11.8789 25.7607 11.7091 25.5038 11.6249C25.2469 11.5406 24.9689 11.547 24.7161 11.643C24.184 11.8557 23.8256 12.4361 24.003 12.9682C24.1804 13.5003 24.4688 13.9942 24.719 14.527L26.7674 13.359Z" fill="#262626"/>
<path d="M2.22097 31.5234C1.841 31.5234 1.66363 31.2141 1.81648 30.9603C1.87557 30.8771 1.94457 30.8013 2.02197 30.7347C3.2448 29.5104 4.46811 28.2866 5.6919 27.0633C5.74814 27.007 5.80437 26.9112 5.86638 26.9054C6.03077 26.891 6.26077 26.8549 6.34873 26.9429C6.4367 27.0308 6.39993 27.2608 6.38551 27.4252C6.37974 27.488 6.28601 27.5449 6.22905 27.6012C4.99757 28.8312 3.76585 30.0608 2.53388 31.2898C2.43653 31.3766 2.33183 31.4548 2.22097 31.5234Z" fill="#262626"/>
<path d="M33.6057 31.1288C33.5077 31.2687 33.455 31.4173 33.3541 31.4684C33.2531 31.5196 33.0924 31.493 32.9691 31.4598C32.8905 31.4389 32.8285 31.3473 32.7636 31.2831L29.0677 27.588C29.0035 27.5231 28.8975 27.456 28.8925 27.3847C28.8824 27.2296 28.8752 27.0241 28.9646 26.9283C29.0367 26.8446 29.253 26.8518 29.3929 26.872C29.478 26.8843 29.5515 26.9953 29.6243 27.0681C30.8481 28.291 32.0712 29.5148 33.2935 30.7395C33.4042 30.8638 33.5084 30.9938 33.6057 31.1288Z" fill="#262626"/>
<path d="M8.42774 29.4513C8.34771 29.5862 8.30805 29.6972 8.23307 29.7729C7.29864 30.716 6.36134 31.6559 5.42114 32.5928C5.2445 32.7694 5.04622 32.8329 4.85083 32.6382C4.65543 32.4435 4.69365 32.2474 4.87534 32.0614C5.81265 31.1241 6.74996 30.1767 7.70025 29.2495C7.80407 29.1485 8.02902 29.1247 8.18765 29.1456C8.27489 29.1644 8.34338 29.3403 8.42774 29.4513Z" fill="#262626"/>
<path d="M26.9277 29.5418C26.9414 29.1582 27.2421 28.9981 27.5045 29.156C27.5799 29.2078 27.6486 29.2686 27.7093 29.337C28.5846 30.2104 29.4592 31.0843 30.333 31.9586C30.3734 31.999 30.4138 32.0401 30.4527 32.0819C30.6178 32.26 30.638 32.4532 30.4686 32.6313C30.2992 32.8094 30.1016 32.7878 29.9242 32.6227C29.8154 32.521 29.7123 32.4143 29.607 32.309C28.7894 31.4914 27.9696 30.6752 27.1556 29.8576C27.0704 29.7593 26.9941 29.6536 26.9277 29.5418Z" fill="#262626"/>
<path d="M2.31884 35.9782C2.1825 35.988 2.04564 35.988 1.90931 35.9782C1.68868 35.9465 1.5279 35.7994 1.5863 35.5853C1.61516 35.5074 1.6608 35.4368 1.71998 35.3785C1.77916 35.3202 1.85044 35.2756 1.92878 35.2479C2.14075 35.1909 2.38013 35.2327 2.60724 35.2306C2.86681 35.2306 3.03192 35.3481 3.02615 35.6127C3.02038 35.8773 2.84662 35.9883 2.59354 35.9854C2.50198 35.9854 2.41113 35.9854 2.32028 35.9854L2.31884 35.9782Z" fill="#262626"/>
<path d="M32.9752 35.2314C33.1 35.2314 33.2485 35.1896 33.3451 35.2422C33.4749 35.3143 33.6544 35.4585 33.6508 35.5688C33.6458 35.7073 33.498 35.9293 33.3768 35.956C33.0984 36.014 32.811 36.014 32.5325 35.956C32.4085 35.93 32.2441 35.7094 32.2441 35.5825C32.2441 35.4556 32.4309 35.3107 32.5693 35.2393C32.6767 35.1831 32.8368 35.2278 32.9731 35.2278L32.9752 35.2314Z" fill="#262626"/>
<path d="M25.9382 25.8779C25.8441 25.8745 25.753 25.8437 25.6761 25.7891C25.5993 25.7346 25.5401 25.6587 25.5058 25.571C25.4715 25.4832 25.4636 25.3873 25.4831 25.2951C25.5027 25.2029 25.5487 25.1185 25.6156 25.0521C25.6826 24.9858 25.7674 24.9405 25.8598 24.9217C25.9521 24.903 26.0479 24.9117 26.1354 24.9468C26.2229 24.9818 26.2982 25.0417 26.3521 25.119C26.4059 25.1963 26.436 25.2877 26.4386 25.3819C26.4384 25.4473 26.4253 25.5121 26.4001 25.5725C26.3748 25.6329 26.3379 25.6877 26.2914 25.7338C26.2449 25.7798 26.1898 25.8163 26.1292 25.841C26.0686 25.8658 26.0037 25.8783 25.9382 25.8779Z" fill="#262626"/>
<path d="M11.6772 33.7229C11.6789 33.7864 11.668 33.8495 11.6452 33.9087C11.6224 33.968 11.5881 34.0221 11.5444 34.0681C11.5007 34.1141 11.4483 34.151 11.3904 34.1768C11.3324 34.2026 11.2699 34.2167 11.2064 34.2183C11.143 34.2199 11.0799 34.209 11.0206 34.1862C10.9614 34.1634 10.9072 34.1291 10.8612 34.0854C10.8153 34.0417 10.7783 33.9894 10.7526 33.9314C10.7268 33.8734 10.7127 33.8109 10.7111 33.7474C10.7095 33.684 10.7204 33.6209 10.7432 33.5616C10.766 33.5024 10.8002 33.4483 10.8439 33.4023C10.8876 33.3563 10.94 33.3193 10.998 33.2936C11.056 33.2678 11.1185 33.2537 11.1819 33.2521C11.2453 33.2505 11.3085 33.2614 11.3677 33.2842C11.4269 33.307 11.4811 33.3412 11.5271 33.3849C11.5731 33.4286 11.61 33.481 11.6358 33.539C11.6615 33.597 11.6756 33.6595 11.6772 33.7229Z" fill="#262626"/>
<path d="M31.078 1.56099C31.1501 1.55378 31.2071 1.54297 31.2626 1.54297C31.8005 1.54297 32.3384 1.54297 32.9245 1.54297C32.8193 1.86814 32.7255 2.16664 32.6268 2.4637C32.4465 3.00517 32.2576 3.5452 32.0838 4.08812C31.9786 4.4169 32.1278 4.62744 32.4732 4.6332C33.0204 4.64186 33.5677 4.6332 34.1892 4.6332L31.2633 9.27577L31.1912 9.25991C31.241 8.9369 31.2857 8.611 31.3419 8.29088C31.4652 7.58213 31.5936 6.87409 31.7205 6.16534C31.7926 5.77672 31.6484 5.59791 31.2597 5.59286C30.8372 5.5871 30.4147 5.59286 29.9316 5.59286L31.078 1.56099Z" fill="#197AFF"/>
<path d="M5.19105 4.63446L2.23492 9.321L2.17508 9.29721C2.29957 8.57043 2.42455 7.84342 2.55 7.11616C2.60408 6.80108 2.67041 6.48744 2.718 6.17092C2.78144 5.7513 2.64589 5.59772 2.22555 5.59412C1.8052 5.59051 1.38557 5.59412 0.927734 5.59412C1.27021 4.39076 1.59395 3.22633 1.93714 2.06623C2.12389 1.42886 1.95877 1.5572 2.63652 1.54422C3.02587 1.53701 3.41521 1.54422 3.80455 1.54422C3.84132 1.55023 3.87751 1.5594 3.9127 1.57162C3.86368 1.73096 3.81681 1.88958 3.7649 2.04604C3.5486 2.68485 3.33229 3.32294 3.12176 3.96248C2.96025 4.44627 3.08931 4.63085 3.58825 4.63373C4.08719 4.63662 4.59694 4.63446 5.19105 4.63446Z" fill="#197AFF"/>
<path d="M12.6365 15.6242C12.0597 15.3517 11.7605 14.9191 11.5911 14.3927C11.5608 14.2968 11.6228 14.1548 11.6754 14.0502C11.8917 13.6176 12.1181 13.2002 12.0987 12.6926C12.0814 12.252 11.9732 11.8375 11.6661 11.5303C11.4195 11.2845 11.4 11.0465 11.4606 10.7372C11.7158 9.42426 12.209 8.2382 13.2479 7.34415C14.1809 6.53879 15.2978 6.17252 16.4982 6.00452C17.4731 5.86609 18.4399 5.96198 19.4068 6.07662C20.1033 6.1617 20.6851 6.76807 20.7594 7.47466C20.812 7.97359 20.8726 8.02262 21.3665 8.06877C22.1899 8.14591 22.8518 8.54102 23.2072 9.27429C23.4906 9.86119 23.6341 10.518 23.8158 11.1489C23.8403 11.2347 23.7437 11.3753 23.6715 11.4647C23.1668 12.0956 23.0847 12.7798 23.3694 13.5275C23.4625 13.7712 23.709 13.9601 23.5922 14.2831C23.4005 14.8145 23.1387 15.1909 22.7004 15.4562C22.6856 15.3698 22.6758 15.2827 22.6708 15.1952C22.6708 14.3365 22.6657 13.477 22.6708 12.6176C22.6708 12.3912 22.6232 12.2073 22.391 12.1244C21.851 11.9298 21.5078 11.5145 21.2374 11.0429C21.0096 10.6485 20.8322 10.2253 20.6412 9.81072C20.4926 9.48843 20.241 9.39398 19.9922 9.61316C19.1162 10.3839 18.0506 10.7783 16.9597 11.0761C15.7275 11.4128 14.4708 11.6601 13.2206 11.9262C12.6971 12.0372 12.6351 12.0812 12.6351 12.6133L12.6365 15.6242Z" fill="#197AFF"/>
<path d="M14.6973 14.646C14.6137 14.5739 14.4558 14.4939 14.4464 14.4023C14.4348 14.2877 14.5185 14.0865 14.6072 14.0512C15.0196 13.8894 15.443 13.7566 15.874 13.6539C15.9742 13.6294 16.1761 13.7376 16.2136 13.832C16.2511 13.9265 16.1631 14.1507 16.078 14.1846C15.6469 14.3562 15.1977 14.4845 14.6973 14.646Z" fill="#262626"/>
<path d="M20.6213 14.6514C20.1108 14.4849 19.653 14.35 19.2096 14.177C19.1295 14.146 19.0531 13.9369 19.0827 13.8446C19.1122 13.7523 19.299 13.6283 19.3804 13.6499C19.833 13.7598 20.2786 13.8963 20.715 14.0588C20.7987 14.0898 20.878 14.2837 20.8592 14.3868C20.8405 14.4899 20.702 14.5656 20.6213 14.6514Z" fill="#262626"/>
<path d="M14.8341 15.8103C14.8391 15.488 15.0713 15.227 15.3453 15.2335C15.6193 15.24 15.85 15.532 15.8442 15.8327C15.837 16.1521 15.6056 16.4001 15.3208 16.3936C15.036 16.3871 14.829 16.1456 14.8341 15.8103Z" fill="#262626"/>
<path d="M20.473 15.824C20.473 16.1564 20.2625 16.4008 19.9741 16.4008C19.6857 16.4008 19.4622 16.1441 19.4629 15.824C19.4629 15.5197 19.7088 15.2385 19.9741 15.2378C20.2394 15.2371 20.473 15.5002 20.473 15.824Z" fill="#262626"/>
</svg>
