<svg width="97" height="6" viewBox="0 0 97 6" fill="none" xmlns="http://www.w3.org/2000/svg">
<path fill-rule="evenodd" clip-rule="evenodd" d="M66.5161 0.856624C66.5365 0.781266 66.5479 0.69691 66.5479 0.607854C66.5479 0.288336 66.4008 0.0293164 66.2193 0.0293164C61.8569 0.0293164 57.4941 0.0227845 53.1311 0.0162523C44.4044 0.00318691 35.677 -0.00987953 26.9503 0.0293183C26.2564 0.0324352 25.555 0.0238004 24.849 0.0151095C22.3518 -0.0156347 19.7974 -0.0470811 17.3154 0.43851C17.1257 0.475618 16.977 0.510872 16.8686 0.545056C16.815 0.561968 16.7648 0.580581 16.7217 0.602071C16.7002 0.612789 16.6752 0.626804 16.6499 0.645406C16.6291 0.660756 16.5863 0.69453 16.544 0.757598C16.5069 0.812975 16.4039 0.995065 16.4248 1.2894C16.4437 1.55501 16.5507 1.68657 16.5791 1.71935C16.6452 1.79549 16.719 1.82323 16.7459 1.83337L16.7467 1.83364C16.8245 1.86293 16.9319 1.88342 17.0509 1.89981C17.5362 1.96666 18.4892 1.99824 19.6146 2.01184C21.0517 2.02921 22.7977 2.01725 24.2635 2.00721C25.0989 2.00149 25.8432 1.99639 26.3875 1.9977C33.28 2.01428 40.1726 2.02073 47.0651 2.02169C40.8924 2.29072 34.7201 2.61968 28.5499 3.04244C21.4213 3.10141 14.6949 3.15658 9.2116 3.20155C5.64818 3.23078 2.60974 3.2557 0.327032 3.27456C0.145568 3.27606 -0.000847762 3.53629 3.69488e-06 3.85581C0.000855126 4.17532 0.148651 4.43312 0.330116 4.43162C2.61276 4.41277 5.65116 4.38784 9.21454 4.35862C10.4177 4.34875 11.6807 4.33839 12.9946 4.32761C12.7427 4.3523 12.4908 4.3772 12.2389 4.4023C10.0915 4.61632 8.99516 4.73877 8.60865 4.79911C8.55987 4.80673 8.51949 4.81379 8.48843 4.82039C8.47311 4.82364 8.45731 4.82735 8.44258 4.83166L8.44159 4.83195C8.43304 4.83443 8.4015 4.84355 8.36833 4.86473C8.35812 4.87125 8.33729 4.88536 8.31317 4.91011C8.29811 4.92556 8.23394 4.99139 8.18989 5.13231C8.17108 5.20349 8.14996 5.36936 8.1503 5.46151C8.15864 5.55049 8.19331 5.70198 8.21656 5.76335C8.26783 5.88168 8.33024 5.93049 8.34546 5.94238C8.38504 5.97331 8.42008 5.98358 8.42792 5.98588L8.42864 5.98609C8.4421 5.99008 8.45382 5.99224 8.46141 5.99346C8.48902 5.99789 8.52297 5.99917 8.55322 5.99969C8.68227 6.00194 8.94425 5.99168 9.28771 5.97378C10.2395 5.92416 11.8759 5.81232 13.2801 5.71635C13.9149 5.67296 14.5023 5.63281 14.9575 5.60313C28.0813 4.74729 41.2174 4.26648 54.3544 3.98316C62.5215 3.91336 69.8447 3.84895 74.9246 3.8006C82.0118 3.73315 85.7844 3.68951 87.4166 3.66236C87.8244 3.65557 88.0996 3.6498 88.2597 3.64492C88.338 3.64253 88.3934 3.64023 88.423 3.63778C88.4297 3.63723 88.4412 3.63621 88.4529 3.63418L88.4531 3.63414C88.4558 3.6337 88.4764 3.63036 88.5002 3.62029C88.5207 3.61036 88.5975 3.54866 88.6479 3.4808C88.7474 3.16 88.6543 2.64451 88.5657 2.53524C88.538 2.51453 88.4967 2.49286 88.4838 2.48814C88.4764 2.48586 88.4646 2.48278 88.4596 2.48172C88.4504 2.47985 88.4426 2.4789 88.4387 2.47845C88.4298 2.47745 88.4205 2.47681 88.4127 2.47636C88.2981 2.46972 87.7942 2.46676 87.061 2.46602C84.1106 2.46303 77.2978 2.49669 76.0219 2.50833C70.1437 2.56195 64.264 2.63558 58.3838 2.74512C61.5776 2.63726 64.7716 2.5399 67.9654 2.44835C76.0215 2.21744 80.2986 2.13177 88.1595 2.04276C90.0014 2.0219 91.8433 2.01263 93.6859 2.00334C94.0532 2.00149 94.4205 1.99964 94.7879 1.9977H96.6817C96.7597 1.9977 96.8008 1.99765 96.8096 1.99755L96.8133 1.99748C96.8135 1.99748 96.8166 1.99741 96.8204 1.99718C96.8234 1.99696 96.8355 1.99561 96.8446 1.99407C97.0807 1.74376 97.0212 0.977636 96.8431 0.843619C96.8347 0.842261 96.8234 0.841033 96.8206 0.840828L96.8158 0.840587L96.8124 0.840484L96.8094 0.840434L96.7964 0.840343L96.7414 0.840158C96.6425 0.839896 96.4451 0.839583 96.2083 0.839375C95.735 0.838957 95.1034 0.838956 94.7869 0.840626H94.0706C86.55 0.840626 79.0296 0.846656 71.5092 0.852686C69.8448 0.854021 68.1805 0.855355 66.5161 0.856624ZM8.55176 5.97269C8.54799 5.97399 8.54714 5.97401 8.5504 5.97306C8.55064 5.97299 8.55109 5.97286 8.55176 5.97269ZM16.874 0.697672C16.8741 0.697584 16.8764 0.6985 16.8803 0.700682C16.8758 0.69885 16.8738 0.69776 16.874 0.697672Z" fill="#197AFF"/>
</svg>
