<svg width="90" height="75" viewBox="0 0 90 75" fill="none" xmlns="http://www.w3.org/2000/svg">
<path fill-rule="evenodd" clip-rule="evenodd" d="M86.354 23.6627C86.0242 23.4958 85.6229 23.6112 85.4578 23.9203C84.1748 26.3228 83.0245 28.7435 81.8966 31.1167C81.088 32.8183 80.291 34.4955 79.4649 36.1243C77.465 40.0674 75.2358 43.8578 72.094 47.4434C66.4701 53.862 59.3803 59.0873 50.8561 61.4402C46.4593 62.6538 41.2058 62.9251 36.4169 61.8439C31.6332 60.7639 27.3647 58.3493 24.8201 54.2294C23.5294 52.1396 22.6808 49.7128 22.2615 47.1579C24.4822 48.4154 26.9428 49.3891 29.6731 49.9988C36.1405 51.4429 40.8586 47.5037 42.9 42.4348C44.9333 37.3859 44.4465 30.9245 40.2515 26.9779C37.9951 24.8552 35.3853 24.0198 32.833 24.2922C30.3003 24.5626 27.9004 25.9145 25.9952 28.0266C22.9289 31.426 21.1422 36.1643 20.7167 41.0099C20.6114 42.2097 20.5891 43.4203 20.6525 44.6231C15.0153 40.6059 11.1383 34.5185 8.36647 28.078C8.2251 27.7495 7.83429 27.5842 7.49359 27.7088C7.15289 27.8334 6.99129 28.2007 7.13267 28.5292C10.0872 35.3944 14.3609 42.0589 20.793 46.2631C21.1598 49.3405 22.1055 52.3093 23.6741 54.849C26.4605 59.3606 31.104 61.9428 36.1469 63.0814C41.1845 64.2188 46.6721 63.9305 51.2641 62.663C60.1012 60.2238 67.3933 54.8238 73.1304 48.2762C76.3669 44.5824 78.6492 40.6925 80.6711 36.706C81.5323 35.008 82.3361 33.3151 83.1439 31.6139C84.253 29.2782 85.3695 26.9267 86.6523 24.5246C86.8174 24.2154 86.6839 23.8295 86.354 23.6627ZM22.0563 45.557C21.9209 44.104 21.9189 42.6244 22.0479 41.1547C22.4556 36.5121 24.1654 32.037 27.0197 28.8726C28.7635 26.9395 30.8855 25.7847 33.0221 25.5566C35.1391 25.3306 37.3459 26.0049 39.3277 27.8694C43.0115 31.3351 43.5635 37.1983 41.6508 41.9476C39.7462 46.677 35.5333 50.0096 29.9397 48.7605C27.0042 48.105 24.3897 47.0022 22.0563 45.557Z" fill="#197AFF"/>
<path fill-rule="evenodd" clip-rule="evenodd" d="M87.082 27.972C87.4496 28.0118 87.7723 27.7611 87.8028 27.4121C87.806 27.3756 87.8107 27.3234 87.8167 27.2574C87.8624 26.7531 87.9812 25.4431 88.0394 24.1998C88.0722 23.5002 88.0869 22.7998 88.0552 22.2685C88.0398 22.0098 88.0115 21.7519 87.954 21.545C87.9269 21.4476 87.8786 21.305 87.782 21.1738C87.6779 21.0323 87.4413 20.8158 87.0771 20.8413C86.5589 20.8777 86.1165 21.1605 85.7839 21.4276C85.4372 21.7061 85.1045 22.0567 84.818 22.3603L84.7947 22.3851C84.5016 22.6958 84.2638 22.9479 84.054 23.1171C83.9707 23.1844 83.9116 23.2218 83.8746 23.241C83.5533 23.1974 83.2448 23.3809 83.1569 23.6845C83.0597 24.0204 83.2694 24.3761 83.6252 24.4791C83.9274 24.5666 84.203 24.5079 84.4065 24.425C84.6065 24.3435 84.785 24.2198 84.9355 24.0985C85.2142 23.8737 85.5057 23.5643 85.7704 23.2833C85.7884 23.2643 85.8062 23.2454 85.8239 23.2267C86.12 22.9128 86.3952 22.626 86.6633 22.4106C86.6844 22.3937 86.705 22.3776 86.7249 22.3624C86.7482 22.8214 86.7359 23.4429 86.7049 24.1041C86.6482 25.3174 86.5322 26.597 86.486 27.1069C86.4799 27.1749 86.4749 27.2293 86.4716 27.2679C86.4411 27.617 86.7144 27.9322 87.082 27.972ZM86.6569 21.8149C86.6569 21.815 86.6574 21.8165 86.6585 21.8191C86.6575 21.8162 86.6569 21.8149 86.6569 21.8149Z" fill="#197AFF"/>
</svg>
