<svg width="171" height="6" viewBox="0 0 171 6" fill="none" xmlns="http://www.w3.org/2000/svg">
<path fill-rule="evenodd" clip-rule="evenodd" d="M117.26 0.856624C117.296 0.781266 117.316 0.69691 117.316 0.607854C117.316 0.288336 117.057 0.0293164 116.737 0.0293164C109.047 0.0293164 101.355 0.0227845 93.664 0.0162523C78.2799 0.00318691 62.8945 -0.00987953 47.5103 0.0293183C46.287 0.0324352 45.0505 0.0238004 43.806 0.0151095C39.4036 -0.0156347 34.9006 -0.0470811 30.525 0.43851C30.1906 0.475618 29.9285 0.510872 29.7374 0.545056C29.6429 0.561968 29.5544 0.580581 29.4785 0.602071C29.4406 0.612789 29.3966 0.626804 29.352 0.645406C29.3152 0.660756 29.2397 0.69453 29.1653 0.757598C29.0999 0.812975 28.9181 0.995065 28.9551 1.2894C28.9884 1.55501 29.1769 1.68657 29.2271 1.71935C29.3437 1.79549 29.4737 1.82323 29.5212 1.83337L29.5224 1.83364C29.6597 1.86293 29.849 1.88342 30.0587 1.89981C30.9143 1.96666 32.5944 1.99824 34.5784 2.01184C37.1118 2.02921 40.1898 2.01725 42.7738 2.00721C44.2464 2.00149 45.5587 1.99639 46.5182 1.9977C58.6689 2.01428 70.8197 2.02073 82.9705 2.02169C72.0887 2.29072 61.2076 2.61968 50.3302 3.04244C37.7633 3.10141 25.9055 3.15658 16.239 3.20155C9.95711 3.23078 4.60067 3.2557 0.576521 3.27456C0.25662 3.27606 -0.00149451 3.53629 6.51365e-06 3.85581C0.00150749 4.17532 0.262055 4.43312 0.581956 4.43162C4.60601 4.41277 9.96236 4.38784 16.2442 4.35862C18.3652 4.34875 20.5917 4.33839 22.908 4.32761C22.464 4.3523 22.0199 4.3772 21.5759 4.4023C17.7902 4.61632 15.8574 4.73877 15.1761 4.79911C15.0901 4.80673 15.0189 4.81379 14.9641 4.82039C14.9371 4.82364 14.9093 4.82735 14.8833 4.83166L14.8816 4.83195C14.8665 4.83443 14.8109 4.84355 14.7524 4.86473C14.7344 4.87125 14.6977 4.88536 14.6552 4.91011C14.6286 4.92556 14.5155 4.99139 14.4379 5.13231C14.4047 5.20349 14.3675 5.36936 14.3681 5.46151C14.3828 5.55049 14.4439 5.70198 14.4849 5.76335C14.5752 5.88168 14.6853 5.93049 14.7121 5.94238C14.7819 5.97331 14.8436 5.98358 14.8575 5.98588L14.8587 5.98609C14.8825 5.99008 14.9031 5.99224 14.9165 5.99346C14.9652 5.99789 15.025 5.99917 15.0784 5.99969C15.3059 6.00194 15.7677 5.99168 16.3732 5.97378C18.0511 5.92416 20.9358 5.81232 23.4112 5.71635C24.5304 5.67296 25.5659 5.63281 26.3684 5.60313C49.5042 4.74729 72.6617 4.26648 95.8207 3.98316C110.218 3.91336 123.128 3.84895 132.084 3.8006C144.578 3.73315 151.228 3.68951 154.105 3.66236C154.825 3.65557 155.31 3.6498 155.592 3.64492C155.73 3.64253 155.828 3.64023 155.88 3.63778C155.891 3.63723 155.912 3.63621 155.932 3.63418L155.933 3.63414C155.938 3.6337 155.974 3.63036 156.016 3.62029C156.052 3.61036 156.187 3.54866 156.276 3.4808C156.452 3.16 156.287 2.64451 156.131 2.53524C156.082 2.51453 156.01 2.49286 155.987 2.48814C155.974 2.48586 155.953 2.48278 155.944 2.48172C155.928 2.47985 155.914 2.4789 155.907 2.47845C155.892 2.47745 155.875 2.47681 155.862 2.47636C155.66 2.46972 154.771 2.46676 153.479 2.46602C148.277 2.46303 136.267 2.49669 134.018 2.50833C123.655 2.56195 113.29 2.63558 102.924 2.74512C108.554 2.63726 114.185 2.5399 119.815 2.44835C134.017 2.21744 141.557 2.13177 155.415 2.04276C158.662 2.0219 161.909 2.01263 165.158 2.00334C165.805 2.00149 166.453 1.99964 167.1 1.9977H170.439C170.576 1.9977 170.649 1.99765 170.664 1.99755L170.671 1.99748C170.671 1.99748 170.677 1.99741 170.683 1.99718C170.689 1.99696 170.71 1.99561 170.726 1.99407C171.142 1.74376 171.037 0.977636 170.723 0.843619C170.709 0.842261 170.689 0.841033 170.684 0.840828L170.675 0.840587L170.669 0.840484L170.664 0.840434L170.641 0.840343L170.544 0.840158C170.37 0.839896 170.022 0.839583 169.604 0.839375C168.77 0.838957 167.657 0.838956 167.099 0.840626H165.836C152.578 0.840626 139.32 0.846656 126.063 0.852686C123.128 0.854021 120.194 0.855355 117.26 0.856624ZM15.0758 5.97269C15.0691 5.97399 15.0676 5.97401 15.0734 5.97306C15.0738 5.97299 15.0746 5.97286 15.0758 5.97269ZM29.7469 0.697672C29.7472 0.697584 29.7512 0.6985 29.7581 0.700682C29.7501 0.69885 29.7467 0.69776 29.7469 0.697672Z" fill="#197AFF"/>
</svg>
