<svg width="12" height="17" viewBox="0 0 12 17" fill="none" xmlns="http://www.w3.org/2000/svg">
<path d="M0.471981 0.0277386C0.408493 0.0476875 0.295046 0.127829 0.214904 0.204674C-0.0721818 0.495056 -0.0721817 0.915712 0.2182 1.20627C0.358361 1.34643 0.49193 1.38979 0.829148 1.41668L1.12629 1.43663L1.14295 2.24117C1.1596 3.1359 1.21632 3.51978 1.40662 4.05718C1.72371 4.96528 2.17785 5.5561 3.34614 6.59429C4.15414 7.30863 4.36126 7.53899 4.53473 7.90292C4.64817 8.14005 4.65494 8.17006 4.65494 8.50381C4.65494 8.83756 4.64817 8.86774 4.53473 9.10469C4.37774 9.43515 4.15744 9.69222 3.66341 10.1295C2.83546 10.8607 2.54507 11.141 2.31141 11.4114C1.72389 12.1091 1.40332 12.7568 1.22638 13.608C1.17625 13.8551 1.1563 14.1189 1.14295 14.7531L1.123 15.581H0.969482C0.485338 15.581 0.22167 15.7079 0.0782133 16.005C0.00136791 16.1552 -0.0085197 16.2119 0.00813304 16.3689C0.031551 16.596 0.144998 16.7795 0.338586 16.9065L0.478746 17H5.67319H10.8676L11.0078 16.9065C11.2014 16.7797 11.315 16.596 11.3382 16.3689C11.3549 16.2121 11.345 16.1552 11.2682 16.005C11.1247 15.7079 10.8609 15.581 10.3769 15.581H10.2234L10.2034 14.7531C10.1833 13.8485 10.1399 13.5479 9.94964 12.9837C9.6492 12.0824 9.17841 11.4614 8.01012 10.4232C7.08208 9.59855 6.88849 9.37166 6.74156 8.94094C6.65136 8.67381 6.65136 8.33329 6.74486 8.06286C6.88832 7.63561 7.16222 7.32181 8.16034 6.44373C9.17182 5.55575 9.65596 4.89814 9.94964 4.02336C10.1399 3.45924 10.1833 3.15533 10.2034 2.2573L10.2234 1.43611L10.5172 1.41616C10.8645 1.38945 10.9913 1.34279 11.1382 1.19239C11.4553 0.865234 11.3953 0.354376 11.008 0.100769L10.8678 0.00727081L5.72679 0.000505447C2.505 -0.00244331 0.542061 0.00761795 0.471981 0.0277386ZM9.63584 2.2344C9.61919 2.94214 9.60913 3.08907 9.53575 3.3961C9.3923 4.00375 9.2053 4.41764 8.86808 4.88167C8.5777 5.2822 8.34734 5.51933 7.6396 6.15369C6.86177 6.84478 6.63471 7.08173 6.42447 7.41895C6.18404 7.80613 6.12402 8.01654 6.12402 8.50398C6.12402 8.87121 6.13409 8.95135 6.21076 9.1583C6.39099 9.65233 6.70149 10.0296 7.50273 10.7306C8.66443 11.7421 9.13852 12.3464 9.40895 13.1609C9.58918 13.705 9.61589 13.9019 9.63602 14.7699L9.65596 15.5812H5.67665H1.70047V14.9536C1.70047 14.2391 1.73377 13.892 1.85069 13.4514C2.09441 12.53 2.54178 11.8824 3.56332 10.9844C4.60498 10.0697 4.95209 9.66568 5.13579 9.16159C5.20916 8.95135 5.22252 8.87121 5.21923 8.50398C5.21923 8.15688 5.20916 8.05002 5.14585 7.87638C4.96562 7.37229 4.64505 6.97835 3.84728 6.28067C2.50188 5.10561 2.07134 4.49466 1.81079 3.39628C1.74071 3.09254 1.72735 2.93885 1.7107 2.23457L1.69075 1.42674H5.67336H9.65596L9.63584 2.2344Z" fill="#11346F"/>
<path d="M2.13449 3.54627C2.13449 3.60629 2.35479 4.14386 2.45505 4.32739C2.73208 4.83148 3.04588 5.18206 3.92067 5.96317C4.80534 6.75106 5.05236 7.02808 5.29937 7.51882C5.42288 7.76583 5.46972 7.93271 5.51968 8.29993C5.55975 8.60385 5.61647 8.69075 5.72992 8.6172C5.77328 8.59049 5.8 8.49699 5.83001 8.27999C5.94692 7.40867 6.22724 7.01472 7.57924 5.82301C8.47051 5.03843 8.85456 4.5411 9.11164 3.83336C9.16836 3.68314 9.21173 3.55286 9.21173 3.54627C9.21173 3.53621 7.61931 3.52962 5.67302 3.52962C3.72673 3.52962 2.13449 3.53621 2.13449 3.54627Z" fill="#197AFD"/>
<path d="M5.60606 8.89458C5.39235 8.97143 5.45255 9.30518 5.67944 9.30518C5.82637 9.30518 5.92975 9.10829 5.84631 8.98478C5.8229 8.95148 5.68933 8.86787 5.66608 8.87463C5.65949 8.87446 5.63278 8.88452 5.60606 8.89458Z" fill="#197AFD"/>
<path d="M5.8803 9.47502C5.70336 9.5418 5.70996 9.81224 5.89036 9.8589C6.08742 9.90903 6.23764 9.72204 6.13078 9.55846C6.07059 9.46513 5.98386 9.43842 5.8803 9.47502Z" fill="#197AFD"/>
<path d="M5.25927 9.94269C5.15571 10.0261 5.14582 10.1463 5.23914 10.2398C5.36942 10.3701 5.60637 10.2766 5.60637 10.0929C5.60637 10.0095 5.46951 9.87261 5.38937 9.87261C5.36595 9.87261 5.30922 9.90262 5.25927 9.94269Z" fill="#197AFD"/>
<path d="M5.8803 10.6103C5.70336 10.6771 5.70996 10.9475 5.89036 10.9942C6.08742 11.0443 6.23764 10.8573 6.13078 10.6937C6.07059 10.6002 5.98386 10.5735 5.8803 10.6103Z" fill="#197AFD"/>
<path d="M5.226 11.3812C5.19599 11.4213 5.17257 11.478 5.17257 11.508C5.17257 11.538 5.19599 11.5948 5.226 11.6348C5.30285 11.7483 5.50303 11.725 5.57311 11.5981C5.61647 11.5179 5.61647 11.498 5.57311 11.4145C5.50303 11.2912 5.30285 11.2678 5.226 11.3812Z" fill="#197AFD"/>
<path d="M5.80618 12.0761C5.76941 12.1129 5.7394 12.1729 5.7394 12.2097C5.7394 12.2898 5.87956 12.4434 5.94964 12.4434C6.03637 12.4434 6.17324 12.3065 6.17324 12.2231C6.17324 12.1195 6.06309 12.0093 5.95623 12.0093C5.90957 12.0095 5.84278 12.0395 5.80618 12.0761Z" fill="#197AFD"/>
<path d="M4.95891 12.64C4.87218 12.7368 4.89872 12.9138 5.01564 12.9772C5.09578 13.0206 5.11573 13.0206 5.19916 12.9772C5.38269 12.8739 5.31261 12.5767 5.10566 12.5767C5.05571 12.5765 4.98892 12.6065 4.95891 12.64Z" fill="#197AFD"/>
<path d="M5.48944 12.8906C5.26914 13.0007 2.15109 15.2006 2.15109 15.2475C2.15109 15.2908 2.56498 15.2976 5.67314 15.2976C8.77454 15.2976 9.1952 15.2908 9.1952 15.2475C9.1952 15.2208 8.59431 14.7802 7.82308 14.2459C6.53111 13.3511 6.45773 13.2944 6.55105 13.271C6.73128 13.2342 6.79148 13.0807 6.68133 12.9438C6.54776 12.7803 6.27732 12.9105 6.32086 13.1175C6.34081 13.211 6.33752 13.211 6.08721 13.0408C5.80671 12.854 5.64972 12.8139 5.48944 12.8906Z" fill="#197AFD"/>
</svg>
