<svg width="29" height="38" viewBox="0 0 29 38" fill="none" xmlns="http://www.w3.org/2000/svg">
<path d="M12.5 9H7H6.5V7.5L7 3.5L10 1.5L13.5 0.5L17.5 1C17.8333 1.16667 18.8 1.7 20 2.5C21.2 3.3 21.8333 5.5 22 6.5V9H19.5L15.5 7L12.5 9Z" fill="#197AFF"/>
<path fill-rule="evenodd" clip-rule="evenodd" d="M12.2461 0.0392477C12.1429 0.0553575 11.8049 0.121281 11.4952 0.185795C9.35603 0.631375 7.4102 2.16901 6.46744 4.15875C5.94004 5.27189 5.84722 5.71427 5.80757 7.30231L5.77235 8.71285L5.37644 9.06318C4.90911 9.47662 4.69907 9.8804 4.62645 10.505C4.57516 10.9458 4.5672 10.9592 4.38629 10.9114C4.24421 10.8739 4.16761 10.7699 4.06841 10.4802C3.64697 9.24959 2.2573 8.6545 1.14295 9.2274C0.82296 9.39198 0.372982 9.87416 0.203039 10.2347C-0.0140653 10.6952 -0.0769965 12.6175 0.112772 12.9935C0.179308 13.1254 0.30119 13.5603 0.383646 13.96C0.952127 16.7179 2.76443 19.1163 5.24329 20.3913C5.98051 20.7704 6.28022 20.8844 7.21465 21.1406L7.92807 21.3362L7.96562 29.0185C7.98627 33.2438 8.0305 36.7426 8.06392 36.7936C8.11213 36.8673 7.5082 36.8864 5.13057 36.8864C2.22111 36.8864 2.13174 36.8907 1.97209 37.0378C1.75115 37.2413 1.75115 37.6451 1.97209 37.8486C2.13617 37.9998 2.15592 38 15.3667 38H28.5969L28.7948 37.8461C29.0684 37.6333 29.0684 37.2531 28.7948 37.0403C28.6018 36.8903 28.5194 36.8864 25.4994 36.8864H22.4019L22.5023 36.608C22.7352 35.9628 22.5753 35.1296 22.117 34.6002C21.8422 34.2828 21.1932 33.9169 20.905 33.9169H20.732V29.8067C20.732 25.7609 20.7296 25.6933 20.5763 25.5008C20.3813 25.2557 19.9794 25.2326 19.7558 25.4537C19.621 25.5869 19.6056 25.7011 19.6056 26.5672V27.5324H14.351H9.09642L9.07547 24.0823C9.05076 20.0192 9.15274 20.4006 8.03283 20.1821C6.30238 19.8446 5.07725 19.1916 3.79355 17.9226C3.01788 17.1557 2.63489 16.6453 2.20301 15.8026C1.91944 15.2493 1.52309 14.081 1.45685 13.6033L1.41179 13.2785H2.35929H3.30678L3.35244 13.4827C3.51021 14.1884 3.96883 15.2274 4.33545 15.7098C4.48587 15.9078 4.56998 15.9511 4.80375 15.9511C5.3235 15.9511 5.50741 15.558 5.22136 15.0585C4.91189 14.518 4.6685 13.9938 4.55691 13.6272L4.45238 13.2837L4.71409 13.131L4.9758 12.9784L5.2466 13.2134C5.58641 13.5084 6.01701 13.6952 6.50311 13.7584L6.88047 13.8076L7.13542 14.3678C7.62145 15.4353 8.44706 16.4678 9.24 16.9996C9.44562 17.1375 9.61474 17.2754 9.61579 17.306C9.62277 17.5068 8.11971 17.2007 7.36454 16.8475C6.77496 16.5718 6.66074 16.5663 6.42276 16.8015C6.16285 17.0585 6.17824 17.3726 6.46233 17.609C6.96886 18.0303 8.5552 18.4752 9.55098 18.4752C10.0884 18.4752 10.093 18.4735 10.3791 18.1671L10.6668 17.8591L11.2124 18.0138C11.5125 18.0989 11.866 18.1897 11.9979 18.2155C12.1842 18.252 12.256 18.3171 12.3193 18.5066C12.447 18.889 12.886 19.3377 13.3557 19.5657C14.4254 20.085 15.7337 19.6232 16.2153 18.5562C16.3603 18.2351 16.3772 18.2242 17.1019 17.9845L17.8408 17.7401L18.2163 18.1364C18.7127 18.6603 19.1142 19.3426 19.3552 20.0714C19.5297 20.5991 19.5556 20.8174 19.5879 22.0294C19.6201 23.2353 19.6406 23.4097 19.7652 23.5327C19.9794 23.7445 20.3855 23.7163 20.5763 23.4763C20.7169 23.2998 20.732 23.1803 20.732 22.2491C20.732 21.4869 20.7566 21.2106 20.8259 21.1916C23.1466 20.5542 24.9914 19.307 26.2949 17.4942C27.0443 16.4522 27.769 14.7212 27.9121 13.6321C27.9403 13.4172 28.026 13.1617 28.1025 13.0643C28.2242 12.9096 28.2415 12.7459 28.24 11.7652C28.2386 10.7987 28.2173 10.597 28.0861 10.3111C27.7655 9.61247 27.3021 9.22331 26.5786 9.04492C25.5967 8.8029 24.457 9.52925 24.1685 10.581C24.0982 10.8371 24.0475 10.8953 23.8723 10.9207C23.67 10.9501 23.6608 10.9383 23.6603 10.6488C23.6594 9.98174 23.2975 9.2784 22.7982 8.97335L22.5343 8.81211V7.71456C22.5343 6.71664 22.5202 6.59935 22.3787 6.42147C22.1836 6.17634 21.7817 6.15325 21.5581 6.37433C21.4216 6.5093 21.4079 6.62177 21.4079 7.60981V8.69681L20.4129 8.65457C19.2733 8.60624 18.5762 8.44106 17.7917 8.03356C17.1604 7.70558 16.4919 7.10974 16.1511 6.57114C15.711 5.87552 15.3003 5.84041 14.9021 6.46431C14.3841 7.27581 13.4688 8.00105 12.5705 8.31159C11.6763 8.62079 11.1323 8.67573 8.96553 8.67573H6.8997L6.92913 7.35799C6.95722 6.10314 6.97029 6.00663 7.20316 5.33499C7.55626 4.31636 7.95157 3.69914 8.74835 2.92223C9.66085 2.03248 10.3954 1.61519 11.6544 1.27131C12.3796 1.07332 15.9548 1.07881 16.7144 1.27918C18.2744 1.69069 19.6928 2.72134 20.4703 4.00864C20.8791 4.68525 20.9397 4.74108 21.2651 4.74108C21.7673 4.74108 21.9171 4.32928 21.624 3.75445C21.1405 2.80612 19.9826 1.61704 18.9424 1.00094C18.2162 0.570871 17.0922 0.177554 16.2771 0.0684235C15.732 -0.00455308 12.6697 -0.0266762 12.2461 0.0392477ZM16.0816 8.18479C17.0654 9.09978 18.4002 9.64187 19.9688 9.76362L20.5948 9.81217L20.565 11.3041C20.5374 12.6777 20.5193 12.843 20.3351 13.3899C19.8088 14.9528 18.5074 16.3082 17.0042 16.8591C16.1704 17.1645 15.524 17.2322 13.7821 17.196C12.4046 17.1673 12.1431 17.1422 11.6829 16.9941C10.118 16.4905 8.93158 15.497 8.26563 14.1323C7.80191 13.1819 7.72996 12.8208 7.68648 11.2264L7.64773 9.80534L9.66535 9.7709C11.4249 9.7409 11.7597 9.71611 12.2837 9.57654C13.4109 9.27639 14.7427 8.51159 15.2238 7.88813C15.3306 7.74968 15.4346 7.63639 15.4549 7.63639C15.4753 7.63639 15.7573 7.88316 16.0816 8.18479ZM6.55395 11.2184C6.57115 12.0044 6.58324 12.6508 6.58084 12.6548C6.57836 12.6589 6.46849 12.6335 6.3367 12.5982C5.94912 12.4946 5.76724 12.1639 5.72789 11.4911C5.6793 10.6613 5.75748 10.2533 6.01378 9.99992C6.13093 9.88411 6.29337 9.78931 6.3747 9.78931C6.51558 9.78931 6.52406 9.85679 6.55395 11.2184ZM22.2628 9.98656C22.5279 10.2486 22.5524 10.377 22.5223 11.3492L22.4968 12.1774L22.2515 12.3939C22.1167 12.513 21.9393 12.6104 21.8573 12.6104C21.7139 12.6104 21.7083 12.5571 21.7083 11.1998V9.78931H21.8858C21.9834 9.78931 22.1531 9.87802 22.2628 9.98656ZM2.61769 10.2926C2.86851 10.4551 3.01998 10.7905 3.06527 11.2837C3.11483 11.8249 3.24895 11.956 3.79889 12.0011C4.02545 12.0197 4.21079 12.0641 4.21079 12.0999C4.21079 12.1357 3.51802 12.1649 2.67131 12.1649H1.13183V11.5078C1.13183 10.9481 1.15714 10.8131 1.3023 10.5984C1.62762 10.1169 2.1566 9.99398 2.61769 10.2926ZM26.6942 10.2773C27.0249 10.5046 27.1143 10.7597 27.1147 11.4782L27.1152 12.1649H25.5758C24.5995 12.1649 24.0363 12.1378 24.0363 12.0907C24.0363 12.0499 24.2034 12.0165 24.4075 12.0165C24.9709 12.0165 25.1753 11.809 25.2423 11.1694C25.2814 10.7962 25.3388 10.6245 25.4726 10.4811C25.8269 10.1014 26.319 10.0193 26.6942 10.2773ZM10.4781 10.5527C10.1448 10.8361 10.1264 11.777 10.448 12.0949C10.6371 12.2818 11.0035 12.2798 11.1948 12.0907C11.3212 11.9657 11.345 11.8433 11.345 11.3166C11.345 10.7291 11.3329 10.6816 11.1471 10.5371C10.8922 10.3389 10.725 10.3428 10.4781 10.5527ZM17.0865 10.5655C16.9231 10.7269 16.9021 10.8119 16.9021 11.3112C16.9021 11.8105 16.9231 11.8955 17.0865 12.0569C17.3214 12.2892 17.6093 12.2892 17.8442 12.0569C18.0075 11.8955 18.0286 11.8105 18.0286 11.3112C18.0286 10.8119 18.0075 10.7269 17.8442 10.5655C17.7428 10.4653 17.5723 10.3832 17.4653 10.3832C17.3583 10.3832 17.1878 10.4653 17.0865 10.5655ZM14.0961 11.0568C13.9423 11.1763 13.8982 11.2756 13.8982 11.5022C13.8982 11.735 13.8706 11.7938 13.7611 11.7938C13.5617 11.7938 13.2975 12.1051 13.2975 12.3401C13.2975 12.8606 14.0475 13.0929 14.5818 12.7377C15.1302 12.3732 15.1916 11.218 14.675 10.9853C14.4176 10.8694 14.3219 10.8812 14.0961 11.0568ZM23.5367 13.1291C23.7269 13.2231 23.7459 13.2638 23.7082 13.4979C23.685 13.6427 23.5083 14.0759 23.3156 14.4608C22.5821 15.926 21.1513 16.9781 19.4757 17.2843C19.1367 17.3462 19.0276 17.3418 18.9477 17.2628C18.8635 17.1796 18.9124 17.1096 19.246 16.8356C20.091 16.1417 20.6376 15.4384 21.1154 14.4305L21.4086 13.812L21.8025 13.7607C22.3188 13.6934 22.7448 13.5015 23.0189 13.2128C23.1408 13.0843 23.2591 12.9891 23.2817 13.0013C23.3044 13.0135 23.4191 13.071 23.5367 13.1291ZM12.0539 13.4319C11.8696 13.6332 11.8909 14.2107 12.0999 14.6793C12.7037 16.0329 14.513 16.4197 15.6451 15.4371C15.9977 15.131 16.2988 14.5206 16.3529 14.0019C16.3894 13.652 16.3728 13.5719 16.2358 13.4364C15.8844 13.0891 15.25 13.3364 15.25 13.8206C15.25 14.4188 14.5772 14.9755 13.9757 14.875C13.4577 14.7885 13.1419 14.4399 13.0316 13.8327C13.0021 13.6708 12.9264 13.4799 12.8633 13.4084C12.6996 13.2231 12.2327 13.2366 12.0539 13.4319ZM26.8143 13.3713C26.8127 13.6473 26.4836 14.7573 26.2334 15.3301C25.338 17.381 23.5511 19.0767 21.5202 19.8032C20.5163 20.1623 20.5301 20.1614 20.4687 19.8734C20.4397 19.7373 20.2844 19.3457 20.1234 19.0032C19.9625 18.6607 19.8309 18.3721 19.8309 18.3619C19.8309 18.3516 19.9576 18.3199 20.1125 18.2913C21.1135 18.1067 22.353 17.3871 23.2261 16.4837C24.0478 15.6335 24.5943 14.6229 24.9093 13.3713C24.9265 13.3032 25.1834 13.2785 25.8738 13.2785C26.5769 13.2785 26.8147 13.302 26.8143 13.3713ZM14.9527 18.4343C14.7042 18.7304 14.0306 18.7519 13.673 18.4752L13.4852 18.33L14.2641 18.3284C14.9359 18.327 15.0306 18.3415 14.9527 18.4343ZM14.858 20.5562C14.3869 20.6346 13.7317 20.9377 13.2403 21.3044L12.8405 21.6028L12.3019 21.2622C11.3881 20.6843 11.0183 20.6642 10.6383 21.172C10.4913 21.3684 10.4813 21.4766 10.4813 22.8794C10.4813 24.5362 10.5155 24.6739 10.9736 24.8615C11.2874 24.9899 11.5813 24.9098 12.2043 24.5259C12.5027 24.342 12.7883 24.1916 12.8389 24.1916C12.8895 24.1916 13.0854 24.3082 13.274 24.4506C13.7481 24.8085 14.3503 25.0771 14.8885 25.1708C16.1451 25.3896 17.7166 24.6641 18.1821 23.6503C18.346 23.2936 18.3741 22.6372 18.2419 22.2539C17.8521 21.1233 16.2573 20.3233 14.858 20.5562ZM16.4281 21.899C16.951 22.1451 17.2026 22.4588 17.2022 22.8641C17.2016 23.4036 16.7609 23.8004 15.9282 24.0113C15.1741 24.2022 14.5618 24.0476 13.8607 23.4889C13.4177 23.1359 13.2389 23.0609 12.8412 23.0609C12.5772 23.0609 12.3744 23.122 12.0735 23.2922C11.8486 23.4194 11.6434 23.5235 11.6174 23.5235C11.5915 23.5235 11.5702 23.2228 11.5702 22.8553C11.5702 22.4878 11.5823 22.1872 11.5971 22.1872C11.6119 22.1872 11.8509 22.3041 12.1283 22.447C12.4056 22.5899 12.7095 22.7068 12.8036 22.7068C13.0982 22.7068 13.4715 22.5422 13.8544 22.2435C14.3213 21.8792 14.5803 21.7472 14.9741 21.6728C15.4461 21.5838 15.9119 21.6562 16.4281 21.899ZM15.7983 22.3728C15.5769 22.5261 15.5134 22.8663 15.6555 23.1379C15.9442 23.6898 16.6768 23.4704 16.6768 22.832C16.6768 22.346 16.1983 22.0959 15.7983 22.3728ZM19.6056 29.0542V29.4626H14.3488H9.09206V29.0542V28.6459H14.3488H19.6056V29.0542ZM11.7204 30.9844V31.3928H10.4063H9.09206V30.9844V30.5761H10.4063H11.7204V30.9844ZM19.6056 30.9844V31.3928H18.2538H16.9021V30.9844V30.5761H18.2538H19.6056V30.9844ZM15.7902 33.8241C15.8075 35.8754 15.8372 36.5938 15.9097 36.7194L16.0062 36.8864H15.3572C14.7681 36.8864 14.7133 36.8745 14.7637 36.7565C15.2743 35.5614 14.5393 34.1795 13.2529 33.9155L12.8469 33.8321V32.4639V31.0958H14.3071H15.7672L15.7902 33.8241ZM11.7204 32.9147V33.323H10.4063H9.09206V32.9147V32.5063H10.4063H11.7204V32.9147ZM19.6056 32.9147V33.323H18.2538H16.9021V32.9147V32.5063H18.2538H19.6056V32.9147ZM11.8343 34.6807C11.9777 34.9066 12.0152 34.9212 12.5477 34.9602C13.0403 34.9963 13.4477 35.1133 13.4477 35.2187C13.4477 35.2377 12.4677 35.2532 11.2699 35.2532H9.09206V34.8449V34.4365L10.3875 34.4394L11.6829 34.4423L11.8343 34.6807ZM19.6056 34.535C19.6056 34.7567 19.9385 34.9371 20.4227 34.9778C20.7128 35.0022 20.9488 35.0645 21.0208 35.1357C21.1293 35.2429 20.9536 35.2532 19.0209 35.2532H16.9021V34.8449V34.4365H18.2538C19.3263 34.4365 19.6056 34.4569 19.6056 34.535ZM13.6557 36.455C13.6393 36.5036 13.5327 36.6122 13.4188 36.6963C13.2255 36.8391 13.093 36.8508 11.4249 36.8716L9.63809 36.8938L9.40266 36.6979C9.27312 36.5902 9.16716 36.4716 9.16716 36.4344C9.16716 36.3952 10.1172 36.3668 11.4263 36.3668C13.1386 36.3668 13.6783 36.3881 13.6557 36.455ZM21.3145 36.4595C21.2976 36.5106 21.1714 36.6275 21.0343 36.7194C20.7949 36.8797 20.7205 36.8864 19.1777 36.8864C17.4712 36.8864 17.2304 36.8443 17.0518 36.5145C16.9729 36.3686 16.999 36.3668 19.1586 36.3668C20.8743 36.3668 21.3387 36.3867 21.3145 36.4595Z" fill="black"/>
</svg>
