<svg width="156" height="24" viewBox="0 0 156 24" fill="none" xmlns="http://www.w3.org/2000/svg">
<g clip-path="url(#clip0_0_703)">
<path d="M20.0025 3.42814C19.7466 3.42728 19.4929 3.4766 19.2562 3.57328C19.0196 3.66995 18.8045 3.81207 18.6235 3.99144C18.4425 4.17081 18.2991 4.38389 18.2015 4.61839C18.104 4.85295 18.0542 5.10425 18.055 5.35794V15.9653C18.0542 16.219 18.104 16.4703 18.2015 16.7048C18.2991 16.9393 18.4425 17.1524 18.6235 17.3318C18.8045 17.5112 19.0196 17.6533 19.2562 17.75C19.4929 17.8466 19.7466 17.8959 20.0025 17.8951V18.3764H12.206V17.8951C12.7219 17.894 13.2163 17.6902 13.581 17.3284C13.9456 16.9667 14.1507 16.4766 14.1512 15.9653V7.15052L10.608 18.3764H6.6514L3.11468 7.15052V15.9653C3.11583 16.4756 3.32048 16.9648 3.68403 17.3263C4.04759 17.6877 4.54058 17.8922 5.0556 17.8951V18.3764H0V17.8951C0.516153 17.894 1.01083 17.6902 1.37581 17.3286C1.74079 16.9669 1.94634 16.4767 1.9475 15.9653V5.35794C1.9475 4.3168 1.24631 3.56318 0 3.42814V2.94678H7.7856V3.42814C6.71513 3.42814 6.11285 4.29938 6.44257 5.35794L9.98589 16.6231L13.549 5.35794C13.8985 4.23839 13.2171 3.42814 12.206 3.42814V2.94678H20.0025V3.42814Z" fill="#213786"/>
<path d="M32.331 16.0438C31.9222 17.7863 31.0121 18.6292 29.2756 18.6292C28.0689 18.6292 27.1743 17.7994 26.9017 16.6994C25.9478 17.8364 24.897 18.6096 23.4551 18.6096C21.6659 18.6096 20.6328 17.6251 20.6328 16.0242C20.6328 13.0685 25.3433 12.8028 26.816 12.3411V10.8904C26.816 7.59281 22.7869 8.07416 23.5474 10.0432C23.637 10.2095 23.7107 10.3837 23.7673 10.5637C23.7959 10.7284 23.7914 10.897 23.7541 11.06C23.7167 11.2229 23.6472 11.3769 23.5496 11.5132C23.4519 11.6494 23.3281 11.7651 23.1851 11.8538C23.0421 11.9424 22.8829 12.0021 22.7166 12.0296C22.4579 12.0622 22.1952 12.0257 21.9555 11.9239C21.7159 11.822 21.5081 11.6584 21.3538 11.4502C21.217 11.2452 21.1255 11.0139 21.0853 10.7714C21.0452 10.5289 21.0573 10.2807 21.1208 10.0432C21.8 7.51656 26.2005 6.84134 28.6733 8.42265C29.7241 9.09787 30.2296 10.274 30.2296 11.7987V15.0397C30.2296 17.7994 31.6517 17.1808 32.2342 16.0046L32.331 16.0438ZM26.816 15.948V13.0337C25.1432 13.7873 24.0332 14.4429 24.0332 15.4078C24.0332 16.3139 24.5586 16.9695 25.5125 16.8541C25.8488 16.8148 26.3368 16.4686 26.816 15.948Z" fill="#213786"/>
<path d="M39.8671 7.78892C41.8454 8.36612 42.8059 9.87118 42.8059 11.3958C42.8059 13.3561 41.2101 15.2729 37.9196 15.2729C37.4391 15.2786 36.9594 15.2333 36.4886 15.1378C34.873 16.1986 35.9238 16.7758 36.4095 16.8542C37.7526 17.072 39.311 17.0284 40.2649 17.1047C42.2696 17.2593 43.5731 17.9541 43.6522 19.6901C43.7885 22.2537 40.887 23.469 37.7921 23.469C34.1521 23.469 33.1388 22.3321 32.9563 21.4826C32.664 20.3261 33.3256 19.2849 34.3191 19.3612C34.4884 19.3697 34.6543 19.4117 34.807 19.4845C34.9597 19.5573 35.0963 19.6596 35.2087 19.7853C35.321 19.911 35.4069 20.0577 35.4614 20.2168C35.5159 20.3758 35.5378 20.544 35.5259 20.7116C35.5005 20.8982 35.448 21.0801 35.3699 21.2518C35.0775 21.8877 35.2138 23.0465 37.9196 23.0465C40.0605 23.0465 41.4233 21.6373 41.3662 20.7704C41.2673 19.4374 39.3418 19.6313 37.8998 19.5724C36.5568 19.5158 34.9808 19.555 33.9433 18.8406C33.6804 18.6788 33.4698 18.4457 33.3365 18.1689C33.2033 17.8921 33.153 17.5832 33.1915 17.2789C33.3278 16.314 34.3983 15.4645 35.449 14.8285C33.8532 14.1337 33.0948 12.8029 33.0948 11.4133C33.0948 9.45297 34.6708 7.53624 37.9614 7.53624C38.4317 7.52993 38.9013 7.57522 39.3616 7.6713C40.4606 6.55395 41.7377 5.99414 42.729 5.99414C44.0347 5.99414 44.7073 7.34458 43.9182 8.15481C43.3137 8.75161 42.3795 8.59046 42.0103 7.73011C41.7641 7.24872 41.0738 6.72817 39.8671 7.78892ZM39.4275 11.3958C39.4275 9.6207 39.0186 8.50114 37.968 8.50114C36.9173 8.50114 36.5084 9.59019 36.5084 11.3762C36.5084 13.1623 36.9151 14.308 37.968 14.308C39.0209 14.308 39.4187 13.1884 39.4187 11.3958H39.4275Z" fill="#213786"/>
<path d="M60.3433 15.1947L60.5168 15.2732C59.798 17.3358 58.0263 18.5904 56.1207 18.5904C53.026 18.5904 50.7684 16.2947 50.7684 13.1887C50.7435 11.7294 51.3031 10.3198 52.3242 9.26804C53.3454 8.21621 54.7448 7.60781 56.2173 7.57574C58.8836 7.46033 60.4422 8.42522 60.7344 9.93028C60.7763 10.1793 60.7666 10.4341 60.7059 10.6793C60.6456 10.9245 60.5356 11.155 60.3829 11.3569C60.2287 11.5567 60.0212 11.7096 59.7837 11.7982C59.5463 11.8868 59.2885 11.9075 59.0396 11.8579C58.7106 11.7787 58.4262 11.5744 58.2476 11.2892C58.0691 11.0039 58.0111 10.6606 58.0856 10.3332C58.1381 10.145 58.2242 9.96788 58.341 9.81049C58.9825 8.74974 57.5606 8.2684 56.4327 8.69314C55.7318 8.94361 54.193 9.8301 54.193 12.5897C54.193 15.0771 55.459 16.8915 57.5233 16.8131C58.6112 16.7717 59.6815 16.3905 60.3433 15.1947Z" fill="#213786"/>
<path d="M81.3466 3.42863C81.0907 3.42776 80.8372 3.47709 80.6006 3.57376C80.3637 3.67044 80.1488 3.81256 79.9679 3.99193C79.7866 4.1713 79.6435 4.38438 79.5459 4.61888C79.4484 4.85343 79.3982 5.10474 79.3991 5.35843V15.9658C79.3982 16.2194 79.4484 16.4708 79.5459 16.7053C79.6435 16.9398 79.7866 17.1529 79.9679 17.3323C80.1488 17.5117 80.3637 17.6538 80.6006 17.7504C80.8372 17.8471 81.0907 17.8964 81.3466 17.8956V18.3769H73.5613V17.8956C74.0772 17.8944 74.5714 17.6907 74.9363 17.3289C75.3008 16.9672 75.506 16.477 75.5065 15.9658V7.15101L71.9654 18.3769H68.0088L64.4701 7.15101V15.9658C64.471 16.4772 64.6767 16.9674 65.0416 17.3291C65.4065 17.6907 65.9012 17.8944 66.4175 17.8956V18.3769H61.362V17.8956C61.8774 17.8933 62.3707 17.6891 62.7347 17.3275C63.0987 16.966 63.304 16.4765 63.3049 15.9658V5.35843C63.3049 4.31729 62.6036 3.56367 61.3574 3.42863V2.94727H69.145V3.42863C68.0723 3.42863 67.4704 4.29987 67.7999 5.35843L71.3433 16.6236L74.9041 5.35843C75.2539 4.23888 74.5723 3.42863 73.5613 3.42863V2.94727H81.3466V3.42863Z" fill="#213786"/>
<path d="M93.6888 16.0438C93.2802 17.7863 92.3699 18.6292 90.6314 18.6292C89.4243 18.6292 88.5297 17.7994 88.2573 16.6994C87.3034 17.8364 86.2528 18.6096 84.8106 18.6096C83.0214 18.6096 81.9883 17.6251 81.9883 16.0242C81.9883 13.0729 86.6987 12.8028 88.1782 12.3411V10.8904C88.1782 7.59281 84.1493 8.07416 84.9095 10.0432C84.9993 10.2095 85.0729 10.3837 85.1295 10.5637C85.158 10.7284 85.1534 10.897 85.1162 11.06C85.0789 11.2229 85.0094 11.3769 84.9118 11.5132C84.8143 11.6494 84.69 11.7651 84.5474 11.8538C84.4043 11.9424 84.245 12.0021 84.0789 12.0296C83.8203 12.0622 83.5575 12.0257 83.3178 11.9239C83.078 11.822 82.8705 11.6584 82.7159 11.4502C82.5792 11.2452 82.4876 11.0139 82.4476 10.7714C82.4076 10.5289 82.4195 10.2807 82.483 10.0432C83.1646 7.51656 87.5629 6.84134 90.0355 8.42265C91.086 9.09787 91.5918 10.274 91.5918 11.7987V15.0397C91.5918 17.7994 93.0142 17.1808 93.5963 16.0046L93.6888 16.0438ZM88.1782 15.948V13.0337C86.5054 13.7873 85.3955 14.4429 85.3955 15.4078C85.3955 16.3139 85.9205 16.9695 86.875 16.8541C87.2067 16.8148 87.7033 16.4686 88.1782 15.948Z" fill="#213786"/>
<path d="M103.286 15.2142C103.286 17.51 100.89 18.6992 98.5932 18.7449C96.7047 18.7645 94.8759 17.9913 94.4673 16.3708C94.2146 15.3885 94.8561 14.3473 95.8497 14.4628C96.7291 14.5782 97.1335 15.4081 96.7047 16.275C96.239 17.2595 97.406 17.7016 98.613 17.7016C99.567 17.7016 100.754 17.1811 100.754 16.2554C100.754 15.1663 99.0217 14.7133 97.2366 14.1339C95.4521 13.5545 94.5441 12.4154 94.5441 10.9125C94.5441 8.23122 96.9205 7.5364 98.8459 7.51901C100.697 7.4994 102.449 8.11581 102.778 9.50541C103.011 10.4703 102.369 11.5311 101.378 11.396C100.521 11.298 100.092 10.4703 100.521 9.60126C101.279 8.03956 96.9578 8.19422 96.9578 9.81906C96.9578 10.5139 97.2302 10.5335 100.754 11.8251C102.506 12.4568 103.286 13.8072 103.286 15.2142Z" fill="#213786"/>
<path d="M113.251 15.2142C113.251 17.51 110.855 18.6992 108.558 18.7449C106.67 18.7645 104.841 17.9913 104.432 16.3708C104.179 15.3885 104.821 14.3473 105.815 14.4628C106.694 14.5782 107.098 15.4081 106.67 16.275C106.204 17.2595 107.371 17.7016 108.578 17.7016C109.532 17.7016 110.719 17.1811 110.719 16.2554C110.719 15.1663 108.986 14.7133 107.201 14.1339C105.417 13.5545 104.509 12.4154 104.509 10.9125C104.509 8.23122 106.885 7.5364 108.811 7.51901C110.662 7.4994 112.413 8.11581 112.743 9.50541C112.978 10.4703 112.334 11.5311 111.343 11.396C110.486 11.298 110.057 10.4703 110.486 9.60126C111.244 8.03956 106.923 8.19422 106.923 9.81906C106.923 10.5139 107.195 10.5335 110.719 11.8251C112.47 12.4568 113.251 13.8072 113.251 15.2142Z" fill="#213786"/>
<path d="M125.962 16.0436C125.553 17.7861 124.643 18.629 122.907 18.629C121.7 18.629 120.805 17.7991 120.533 16.6992C119.579 17.8361 118.526 18.6094 117.086 18.6094C115.294 18.6094 114.264 17.6249 114.264 16.024C114.264 13.0727 118.974 12.8026 120.454 12.3408V10.8902C120.454 7.59255 116.424 8.0739 117.183 10.0429C117.273 10.2088 117.347 10.3832 117.403 10.5635C117.431 10.7281 117.426 10.8967 117.389 11.0595C117.351 11.2223 117.282 11.3762 117.184 11.5124C117.086 11.6486 116.963 11.7643 116.82 11.853C116.677 11.9417 116.518 12.0016 116.352 12.0294C116.093 12.062 115.831 12.0255 115.591 11.9236C115.351 11.8218 115.144 11.6582 114.989 11.45C114.85 11.2464 114.756 11.016 114.713 10.7739C114.67 10.5318 114.68 10.2834 114.74 10.0451C115.422 7.51851 119.823 6.8433 122.293 8.4246C123.346 9.09982 123.851 10.276 123.851 11.8006V15.0395C123.851 17.7991 125.272 17.1806 125.856 16.0044L125.962 16.0436ZM120.456 15.9478V13.0335C118.783 13.7871 117.673 14.4427 117.673 15.4076C117.673 16.3136 118.198 16.9693 119.152 16.8538C119.48 16.8146 119.968 16.4683 120.456 15.9478Z" fill="#213786"/>
<path d="M133.494 7.78892C135.472 8.36612 136.435 9.87118 136.435 11.3958C136.435 13.3561 134.837 15.2729 131.549 15.2729C131.065 15.2792 130.583 15.2339 130.109 15.1378C128.491 16.1986 129.544 16.7758 130.03 16.8542C131.373 17.072 132.931 17.0284 133.883 17.1047C135.89 17.2593 137.193 17.9541 137.27 19.6901C137.407 22.2537 134.507 23.469 131.412 23.469C127.772 23.469 126.759 22.3321 126.566 21.4826C126.273 20.3261 126.935 19.2849 127.928 19.3612C128.098 19.3697 128.263 19.4117 128.416 19.4845C128.569 19.5573 128.706 19.6596 128.818 19.7853C128.93 19.911 129.016 20.0577 129.071 20.2168C129.125 20.3758 129.147 20.544 129.135 20.7116C129.11 20.8982 129.057 21.0801 128.979 21.2518C128.687 21.8877 128.823 23.0465 131.529 23.0465C133.67 23.0465 135.033 21.6373 134.973 20.7704C134.877 19.4374 132.949 19.6313 131.509 19.5724C130.166 19.5158 128.59 19.555 127.552 18.8406C127.295 18.6749 127.09 18.4402 126.963 18.1637C126.834 17.8872 126.788 17.5803 126.83 17.2789C126.966 16.314 128.036 15.4645 129.087 14.8285C127.491 14.1337 126.733 12.8029 126.733 11.4133C126.733 9.45297 128.309 7.53624 131.599 7.53624C132.07 7.52993 132.539 7.57522 133 7.6713C134.098 6.55395 135.375 5.99414 136.367 5.99414C137.67 5.99414 138.334 7.34458 137.554 8.15481C136.952 8.75161 136.015 8.59046 135.648 7.73011C135.402 7.24872 134.701 6.72817 133.494 7.78892ZM133.054 11.3958C133.054 9.6207 132.646 8.50114 131.595 8.50114C130.544 8.50114 130.133 9.59019 130.133 11.3762C130.133 13.1623 130.542 14.308 131.595 14.308C132.648 14.308 133.048 13.1884 133.048 11.3958H133.054Z" fill="#213786"/>
<path d="M147.93 12.5914H141.318C141.318 15.0788 142.584 16.8932 144.649 16.8148C145.748 16.7756 146.809 16.3791 147.471 15.1943L147.647 15.2727C146.926 17.3157 145.154 18.5899 143.251 18.5899C140.156 18.5899 137.898 16.2942 137.898 13.1882C137.898 10.1999 140.116 7.55566 143.347 7.55566C146.172 7.55566 148.016 9.69673 147.93 12.5914ZM145.148 11.8182C145.148 9.83179 144.31 8.55107 143.259 8.55107C142.209 8.55107 141.371 9.8427 141.371 11.8182H145.148Z" fill="#213786"/>
<path d="M155.227 4.69597C154.688 4.69629 154.154 4.59135 153.656 4.38723C153.158 4.1831 152.706 3.88377 152.325 3.50634C151.944 3.1289 151.642 2.68076 151.435 2.18751C151.229 1.69426 151.123 1.16557 151.123 0.631648C151.123 0.420108 151.14 0.208899 151.174 0H150.598C150.629 0.20908 150.645 0.420206 150.646 0.631648C150.646 1.70958 150.214 2.74336 149.445 3.50557C148.675 4.26778 147.632 4.69597 146.544 4.69597C146.27 4.69703 145.996 4.67001 145.727 4.61539V5.29714C145.935 5.2665 146.145 5.25122 146.355 5.2514C146.968 5.25076 147.574 5.38637 148.127 5.64817C148.68 5.91001 149.167 6.29145 149.552 6.76437C149.936 7.2373 150.209 7.78969 150.349 8.38088C150.49 8.97207 150.495 9.58701 150.365 10.1804H151.228C151.085 9.52341 151.108 8.84143 151.296 8.19538C151.483 7.54934 151.829 6.95939 152.303 6.47828C152.776 5.99716 153.363 5.63984 154.011 5.43828C154.658 5.23677 155.345 5.19724 156.011 5.32328V4.62409C155.753 4.67305 155.49 4.69712 155.227 4.69597Z" fill="#213786"/>
<path d="M49.0917 16.9304V7.69092L44.7129 8.38574L44.7898 8.84964C44.8995 8.83427 45.0112 8.84205 45.1177 8.87251C45.2241 8.90298 45.3229 8.95539 45.4073 9.0264C45.4918 9.0974 45.5602 9.1853 45.608 9.28433C45.6557 9.3834 45.6818 9.49136 45.6844 9.60111V16.9304C45.6856 17.0573 45.6613 17.1831 45.6129 17.3005C45.5645 17.418 45.493 17.5247 45.4026 17.6145C45.3122 17.7043 45.2046 17.7754 45.0862 17.8236C44.9678 17.8718 44.8409 17.8962 44.7129 17.8953V18.3767H50.0654V17.8953C49.937 17.8965 49.81 17.8723 49.6913 17.8242C49.5725 17.7762 49.4649 17.7051 49.3742 17.6153C49.2836 17.5255 49.2118 17.4186 49.163 17.301C49.1147 17.1834 49.0903 17.0575 49.0917 16.9304Z" fill="#213786"/>
<path d="M49.5951 3.54356C49.0452 3.54356 48.5174 3.32694 48.128 2.94134C47.7387 2.55574 47.5202 2.03275 47.5202 1.48743C47.5206 1.38099 47.5284 1.2747 47.5445 1.16943H47.2588C47.2749 1.2747 47.2827 1.38099 47.2827 1.48743C47.2827 2.03275 47.0641 2.55574 46.6753 2.94134C46.286 3.32694 45.7582 3.54356 45.2079 3.54356C45.0698 3.54426 44.932 3.53039 44.7969 3.50218V3.84632C44.9016 3.8306 45.0074 3.82259 45.1134 3.82236C45.4231 3.82272 45.7288 3.89185 46.008 4.02465C46.2873 4.15746 46.5326 4.35058 46.7268 4.58981C46.9205 4.82901 47.0581 5.1083 47.129 5.40709C47.1999 5.70584 47.2022 6.0165 47.1354 6.31626H47.5754C47.5022 5.98401 47.5137 5.63902 47.608 5.31215C47.7028 4.98524 47.8777 4.68673 48.117 4.44328C48.3568 4.19982 48.6536 4.01905 48.9808 3.91716C49.3084 3.81525 49.6563 3.79541 49.9931 3.85938V3.50653C49.862 3.53144 49.729 3.54384 49.5951 3.54356Z" fill="#213786"/>
</g>
<defs>
<clipPath id="clip0_0_703">
<rect width="156" height="23.469" fill="white"/>
</clipPath>
</defs>
</svg>
