<svg width="75" height="82" viewBox="0 0 75 82" fill="none" xmlns="http://www.w3.org/2000/svg">
<path fill-rule="evenodd" clip-rule="evenodd" d="M30.3091 78.846C30.1173 78.5898 30.1695 78.2266 30.4257 78.0348C32.4169 76.5443 34.4414 75.1647 36.4262 73.8122C37.8492 72.8425 39.2519 71.8867 40.6074 70.9137C43.889 68.5583 47.0044 66.0307 49.8195 62.7526C54.8586 56.8847 58.6402 49.9511 59.6619 42.2507C60.1889 38.2788 59.7612 33.7237 58.1796 29.7865C56.5997 25.8535 53.8885 22.5789 49.8678 21.0607C47.8283 20.2905 45.5431 19.9546 43.1977 20.008C44.6094 21.7114 45.7971 23.6667 46.6928 25.9125C48.8144 31.2323 45.8834 35.9212 41.5973 38.4944C37.3281 41.0575 31.4699 41.6851 27.3938 38.7216C25.2014 37.1276 24.1186 35.0217 24.037 32.786C23.956 30.5674 24.8621 28.2878 26.5134 26.31C29.171 23.1269 33.1932 20.8259 37.4855 19.6764C38.5483 19.3918 39.6313 19.1767 40.7183 19.0365C36.3948 14.846 30.439 12.502 24.3076 11.1641C23.9949 11.0958 23.7967 10.787 23.8649 10.4743C23.9331 10.1616 24.242 9.96336 24.5547 10.0316C31.0903 11.4577 37.6145 14.0489 42.2074 18.8917C45.0148 18.7087 47.7987 19.0403 50.2773 19.9763C54.6802 21.6388 57.5897 25.2084 59.2552 29.3544C60.9189 33.4961 61.3614 38.2549 60.811 42.4032C59.7518 50.3863 55.8393 57.5218 50.6988 63.5078C47.7988 66.8848 44.601 69.474 41.2833 71.8554C39.8702 72.8697 38.4543 73.8338 37.0315 74.8028C35.078 76.1331 33.1112 77.4724 31.1204 78.9627C30.8641 79.1545 30.5009 79.1023 30.3091 78.846ZM41.7354 20.0908C40.4147 20.2097 39.0872 20.4474 37.7853 20.7961C33.6729 21.8974 29.8771 24.0899 27.4032 27.0529C25.8918 28.8631 25.1271 30.8722 25.1954 32.7437C25.2631 34.5982 26.1498 36.384 28.0755 37.7841C31.6548 40.3865 36.9848 39.9117 41.0007 37.5007C44.9998 35.0998 47.451 30.9429 45.6161 26.3419C44.6531 23.9272 43.3299 21.8606 41.7354 20.0908Z" fill="#197AFF"/>
<path fill-rule="evenodd" clip-rule="evenodd" d="M34.2679 78.7731C34.3506 79.0823 34.1669 79.4 33.8577 79.4826C33.8254 79.4913 33.7792 79.5038 33.7208 79.5196C33.2742 79.6405 32.1143 79.9545 31.0065 80.2057C30.3831 80.347 29.7567 80.473 29.2761 80.5318C29.042 80.5604 28.8071 80.5778 28.6142 80.5619C28.5233 80.5544 28.3892 80.536 28.2592 80.4744C28.119 80.4078 27.8945 80.2397 27.8709 79.9228C27.8374 79.472 28.0345 79.0463 28.2316 78.7175C28.4372 78.3747 28.7092 78.0323 28.9449 77.7372L28.9642 77.7131C29.2054 77.4111 29.4012 77.1661 29.5262 76.9586C29.5759 76.8762 29.6019 76.8194 29.6144 76.7845C29.5342 76.5157 29.6594 76.2211 29.9205 76.0965C30.2094 75.9586 30.5553 76.0811 30.6931 76.37C30.8102 76.6153 30.7928 76.8615 30.7444 77.0496C30.6968 77.2345 30.6087 77.4079 30.5191 77.5567C30.353 77.8324 30.1128 78.1328 29.8945 78.4056C29.8798 78.4241 29.8651 78.4424 29.8505 78.4607C29.6068 78.7657 29.3847 79.0485 29.2258 79.3135C29.2133 79.3344 29.2015 79.3547 29.1904 79.3743C29.6051 79.3199 30.161 79.2088 30.7502 79.0752C31.8313 78.8301 32.9643 78.5235 33.4158 78.4013C33.476 78.385 33.5241 78.372 33.5583 78.3628C33.8676 78.2802 34.1853 78.4638 34.2679 78.7731ZM28.6906 79.4045C28.6906 79.4044 28.692 79.4046 28.6946 79.4051C28.6918 79.4048 28.6905 79.4045 28.6906 79.4045Z" fill="#197AFF"/>
</svg>
