<svg width="70" height="80" viewBox="0 0 70 80" fill="none" xmlns="http://www.w3.org/2000/svg">
<path fill-rule="evenodd" clip-rule="evenodd" d="M23.7799 76.5889C23.6196 76.3118 23.7142 75.9573 23.9913 75.797C26.1441 74.5512 28.3168 73.4195 30.447 72.3099C31.9742 71.5144 33.4797 70.7303 34.9402 69.9237C38.4762 67.9708 41.8674 65.8274 45.0487 62.9034C50.7434 57.6693 55.3148 51.229 57.2356 43.7023C58.2264 39.82 58.3377 35.2463 57.2305 31.1502C56.1244 27.0587 53.8175 23.4878 50.0033 21.5069C48.0687 20.5021 45.8389 19.8995 43.5034 19.6765C44.7049 21.5342 45.6543 23.6157 46.2794 25.9513C47.7602 31.4839 44.2978 35.7953 39.7386 37.8462C35.1974 39.889 29.306 39.8228 25.6071 36.4002C23.6175 34.5592 22.7901 32.3405 22.9722 30.1108C23.1528 27.8981 24.3209 25.741 26.1935 23.9713C29.2072 21.123 33.4723 19.3114 37.87 18.675C38.9589 18.5174 40.0597 18.4313 41.1557 18.42C37.3553 13.7498 31.7168 10.7211 25.7855 8.67095C25.4829 8.56638 25.3225 8.23638 25.427 7.93386C25.5316 7.63133 25.8616 7.47086 26.1641 7.57543C32.4865 9.76078 38.6604 13.1018 42.6515 18.4515C45.4609 18.6002 48.1864 19.2571 50.5376 20.4782C54.7143 22.6474 57.1834 26.5345 58.3494 30.8477C59.5142 35.1565 59.3935 39.9342 58.3587 43.9889C56.3674 51.7919 51.6424 58.4174 45.8331 63.7568C42.5558 66.769 39.0756 68.964 35.5006 70.9383C33.978 71.7792 32.4585 72.5701 30.9314 73.3649C28.835 74.4561 26.7243 75.5546 24.5718 76.8002C24.2948 76.9605 23.9403 76.8659 23.7799 76.5889ZM42.0416 19.5867C40.7161 19.5493 39.3699 19.6291 38.036 19.8222C33.8225 20.4319 29.795 22.1624 26.9896 24.8137C25.2757 26.4334 24.2798 28.3385 24.1274 30.2051C23.9764 32.0547 24.6468 33.9324 26.3943 35.5494C29.6426 38.555 34.9913 38.7107 39.2631 36.7891C43.5169 34.8755 46.4404 31.036 45.1597 26.251C44.4876 23.7398 43.4167 21.5318 42.0416 19.5867Z" fill="#197AFF"/>
<path fill-rule="evenodd" clip-rule="evenodd" d="M27.7199 76.9824C27.7656 77.2992 27.5458 77.5931 27.229 77.6388C27.1959 77.6435 27.1486 77.6505 27.0887 77.6593C26.631 77.7268 25.4421 77.9022 24.3125 78.0212C23.6768 78.0882 23.0399 78.1396 22.5557 78.1414C22.3199 78.1423 22.0846 78.132 21.8949 78.0934C21.8055 78.0753 21.6745 78.0413 21.5527 77.9647C21.4213 77.8822 21.2181 77.6888 21.232 77.3713C21.2517 76.9196 21.4976 76.5201 21.7321 76.2168C21.9765 75.9006 22.2869 75.5925 22.5558 75.3272L22.5777 75.3056C22.8528 75.0341 23.0761 74.8139 23.2246 74.6225C23.2836 74.5465 23.3161 74.4931 23.3327 74.46C23.2847 74.1836 23.4437 73.9058 23.7177 73.8128C24.0208 73.7099 24.3499 73.8722 24.4527 74.1753C24.5401 74.4327 24.4938 74.6751 24.4236 74.8563C24.3547 75.0343 24.2467 75.1961 24.1402 75.3333C23.9429 75.5875 23.6689 75.8576 23.4201 76.1028C23.4033 76.1194 23.3865 76.1359 23.3699 76.1523C23.092 76.4265 22.8381 76.6812 22.6491 76.9257C22.6343 76.945 22.6202 76.9637 22.6068 76.9819C23.025 76.9767 23.5902 76.9318 24.191 76.8685C25.2934 76.7523 26.4547 76.5811 26.9174 76.5129C26.9791 76.5038 27.0284 76.4966 27.0635 76.4915C27.3803 76.4458 27.6742 76.6656 27.7199 76.9824ZM22.107 76.953C22.107 76.953 22.1084 76.9533 22.1108 76.9542C22.1082 76.9535 22.1069 76.953 22.107 76.953Z" fill="#197AFF"/>
</svg>
