<svg width="42" height="40" viewBox="0 0 42 40" fill="none" xmlns="http://www.w3.org/2000/svg">
<path d="M22.5 19.5H18.5L17.5 18L18 16L22.5 15.5L24 16.5L24.5 18.5L22.5 19.5Z" fill="#197AFF"/>
<path fill-rule="evenodd" clip-rule="evenodd" d="M9.87643 0.105935C9.52468 0.217893 5.02811 2.71398 4.8336 2.90523C4.63547 3.10009 4.68982 3.52223 4.94083 3.7381C5.06374 3.84382 5.22509 3.93034 5.29939 3.93034C5.37362 3.93034 6.45728 3.35741 7.70746 2.6571C8.95772 1.95686 10.0966 1.34347 10.2385 1.29406C10.9529 1.04511 11.7247 1.63469 11.7233 2.42825C11.722 3.20162 10.6128 6.93951 9.69472 9.26446C8.25052 12.9218 6.75254 15.0934 5.67389 15.0934C4.14348 15.0934 2.03231 12.1215 1.33628 8.98735C0.988146 7.41993 1.54082 6.14201 2.90241 5.36577C3.68572 4.91925 3.84148 4.76896 3.84148 4.45968C3.84148 4.11765 3.60173 3.84826 3.29735 3.84826C2.98083 3.84826 1.897 4.47429 1.38662 4.952C0.225279 6.03884 -0.223934 7.49315 0.104827 9.10145C0.854638 12.7691 3.31911 16.1383 5.37699 16.3088L5.83285 16.3467L5.78047 16.8486C5.66026 18.0013 5.62963 19.832 5.72061 20.4286C5.79483 20.9149 5.85839 21.0831 6.02318 21.2289C6.25801 21.4368 6.3732 21.4537 6.66132 21.3225C6.98598 21.1746 7.06028 20.9068 6.95092 20.2788C6.83851 19.6336 6.90617 17.6417 7.07761 16.549L7.19043 15.8295L7.74211 15.245C9.28582 13.6091 10.8694 10.2638 12.1268 5.98236L12.5968 4.38178L13.0359 4.11707C14.973 2.94931 17.7333 2.5888 20.4068 3.15451C20.9419 3.26778 21.0623 3.26778 21.5974 3.15451C24.2709 2.5888 27.0288 2.94898 28.9688 4.11707L29.4083 4.38178L29.7252 5.48988C31.0076 9.97446 32.6769 13.5651 34.2585 15.2412L34.8137 15.8295L34.9269 16.549C34.9893 16.9447 35.0645 17.841 35.0942 18.5408C35.1378 19.5678 35.1216 19.9437 35.0106 20.4909C34.7363 21.8426 33.8612 23.4358 32.3846 25.2714C31.5982 26.249 29.5109 28.293 28.3918 29.1812C27.5759 29.8288 27.36 30.0427 27.3389 30.2245C27.281 30.725 27.768 31.0494 28.2238 30.8139C28.6191 30.6096 30.1016 29.3988 30.933 28.6012C33.1128 26.5105 34.6341 24.5563 35.5382 22.6859C36.1775 21.3633 36.3069 20.7868 36.3114 19.2385C36.3135 18.5161 36.2844 17.5698 36.2467 17.1356L36.1784 16.3461L36.6307 16.3086C38.6982 16.1372 41.2236 12.6578 41.9052 9.04153C42.2152 7.3972 41.7637 6.00428 40.5678 4.91531C39.963 4.36463 37.4583 2.94537 37.0912 2.94537C36.9579 2.94537 36.775 3.01924 36.6847 3.10953C36.4781 3.31604 36.4668 3.77693 36.6642 3.94569C36.7432 4.01324 37.439 4.42365 38.2104 4.85761C39.2045 5.41691 39.7148 5.75713 39.9626 6.02587C40.6923 6.81738 40.929 7.8113 40.6679 8.98735C40.2414 10.9076 39.1802 12.9963 38.0419 14.1558C37.137 15.0774 36.2913 15.3266 35.6502 14.8606C34.4162 13.9635 32.9216 11.2067 31.638 7.45982C30.9465 5.44104 30.2803 2.95374 30.2803 2.3905C30.2803 1.74304 30.9081 1.17447 31.538 1.25138C31.7267 1.27436 32.3639 1.57642 33.1391 2.01022C34.9166 3.00496 34.8209 2.96318 35.0883 2.86148C35.5492 2.68632 35.6647 2.2764 35.3505 1.9301C35.1178 1.67368 32.5796 0.247279 32.0941 0.100189C31.307 -0.13842 30.5023 0.0531568 29.8578 0.632321C29.3422 1.09583 29.1199 1.53218 29.0676 2.18374C29.0448 2.46716 29.0179 2.69912 29.0077 2.69912C28.9975 2.69912 28.7162 2.58601 28.3826 2.44779C26.4742 1.6571 23.7137 1.44189 21.5149 1.91238C21.0841 2.00455 20.9153 2.00422 20.4671 1.91032C18.1824 1.43154 15.5847 1.63978 13.5914 2.4615C13.2744 2.59217 13.0066 2.69912 12.9965 2.69912C12.9863 2.69912 12.9588 2.46051 12.9354 2.16888C12.8174 0.699299 11.2768 -0.339683 9.87643 0.105935ZM14.7208 7.54289C13.7781 7.67266 12.725 8.1759 12.4189 8.64286C12.2741 8.86382 12.3109 9.26955 12.4891 9.41754C12.767 9.64802 13.0276 9.61421 13.5234 9.28317C14.6239 8.54855 16.2124 8.54781 17.3115 9.28145C17.7054 9.54452 17.8456 9.59697 18.0402 9.5542C18.3339 9.48969 18.4397 9.371 18.508 9.02962C18.5541 8.79955 18.5203 8.73003 18.2267 8.45095C17.4782 7.73906 16.0269 7.36313 14.7208 7.54289ZM25.8875 7.54289C24.9448 7.67266 23.8917 8.1759 23.5856 8.64286C23.4408 8.86382 23.4776 9.26955 23.6558 9.41754C23.9337 9.64802 24.1943 9.61421 24.6901 9.28317C25.7906 8.54855 27.3791 8.54781 28.4782 9.28145C28.8721 9.54452 29.0123 9.59697 29.2069 9.5542C29.5006 9.48969 29.6064 9.371 29.6747 9.02962C29.7208 8.79955 29.687 8.73003 29.3934 8.45095C28.6449 7.73906 27.1936 7.36313 25.8875 7.54289ZM14.0418 12.6708C13.4889 12.8264 13.2126 12.9708 12.8877 13.2741C12.5821 13.5597 12.5538 13.829 12.7973 14.1384C13.0258 14.4288 13.3355 14.4178 13.8448 14.1014C14.5457 13.6658 15.5072 13.6855 16.1911 14.1496C16.5906 14.4205 16.918 14.4167 17.137 14.1384C17.3875 13.82 17.3531 13.5554 17.0205 13.2419C16.419 12.6748 14.9969 12.4021 14.0418 12.6708ZM26.0947 12.6752C25.8475 12.7444 25.489 12.8928 25.298 13.0046C24.6927 13.3592 24.5498 13.7351 24.8671 14.1384C25.0981 14.432 25.4061 14.4173 25.9364 14.0879C26.3294 13.8437 26.4224 13.8211 27.037 13.8211C27.6517 13.8211 27.7446 13.8437 28.1377 14.0879C28.6729 14.4205 28.9755 14.4324 29.2134 14.1302C29.919 13.2334 27.7362 12.2149 26.0947 12.6752ZM20.0168 15.1069C18.9507 15.1685 18.1101 15.3916 17.7257 15.7149C17.1103 16.2325 16.8133 17.5196 17.0899 18.4704C17.3786 19.463 17.906 19.8603 19.5447 20.3193L20.3452 20.5436V22.0425V23.5414L20.0373 23.6235C19.4748 23.7734 18.3436 23.9455 17.5535 24.0015C16.5277 24.0741 15.5267 23.936 14.8667 23.6306C13.6301 23.0585 12.5738 21.5492 11.881 19.3645C11.5303 18.2587 11.2087 17.9893 10.7086 18.3826C10.4186 18.6106 10.426 18.9345 10.743 19.8803C11.4173 21.8923 12.4503 23.4811 13.6502 24.3519C14.1892 24.7431 14.2027 24.761 14.6816 25.7247C15.2592 26.8874 15.501 27.8902 15.5605 29.3694L15.6081 30.5536L15.2876 30.3581C14.0877 29.6262 12.3655 28.1967 11.0239 26.819C9.8412 25.6043 9.18729 24.8004 8.38797 23.5781C7.73439 22.5788 7.56484 22.4589 7.1263 22.6856C6.86511 22.8206 6.74844 23.1 6.83687 23.3787C6.86676 23.4729 7.14067 23.928 7.44545 24.3901C9.32097 27.2334 12.002 29.7667 15.3525 31.8615L15.5738 31.9998L15.5989 34.4064L15.624 36.813L15.9339 37.4394C16.4668 38.517 17.6862 39.4112 19.1721 39.8142C20.0857 40.0619 21.9184 40.0619 22.832 39.8142C24.3179 39.4112 25.5373 38.517 26.0703 37.4394L26.3802 36.8129L26.4264 32.4991L26.4726 28.1853L26.6932 27.3664C26.8908 26.633 27.5634 25.1071 27.8358 24.7746C27.8932 24.7044 28.1065 24.5332 28.3097 24.3941C29.1606 23.8116 30.0739 22.6263 30.6986 21.2937C31.1317 20.3697 31.5248 19.1377 31.4952 18.7966C31.4505 18.2816 30.8627 18.0524 30.5047 18.4103C30.4411 18.4738 30.2714 18.8969 30.1276 19.3506C29.7757 20.46 29.4532 21.1579 28.9263 21.9493C28.0849 23.2137 27.2535 23.7759 25.9526 23.9605C24.9718 24.0997 23.188 23.9488 21.9668 23.6235L21.6589 23.5414V22.0425V20.5436L22.4595 20.3193C23.6327 19.9907 24.2251 19.691 24.528 19.2729C25.4021 18.0667 25.064 16.0026 23.9088 15.4917C23.0957 15.1322 21.7984 15.0039 20.0168 15.1069ZM22.2747 16.367C23.2076 16.4433 23.4637 16.5501 23.6391 16.9361C23.9291 17.5743 23.7555 18.5111 23.3041 18.7445C22.897 18.9549 21.397 19.3616 21.028 19.3616C20.6367 19.3616 19.4484 19.0536 18.8497 18.7971C18.5536 18.6702 18.4544 18.5726 18.3457 18.301C18.1691 17.8597 18.1767 17.3504 18.3664 16.9331C18.4959 16.6481 18.5748 16.5821 18.8922 16.4933C19.3297 16.3708 20.7002 16.2569 21.2895 16.2941C21.5152 16.3083 21.9586 16.3412 22.2747 16.367ZM21.8642 24.8593C23.04 25.1306 23.8144 25.2213 24.9974 25.2259L26.1599 25.2304L26.0337 25.5177C25.9641 25.6757 25.792 26.1585 25.6511 26.5906L25.3949 27.3763L25.0283 27.144C24.143 26.5829 22.8509 26.3281 21.7701 26.5016C21.4154 26.5584 21.0698 26.605 21.0021 26.605C20.9343 26.605 20.5887 26.5584 20.234 26.5016C19.1532 26.3281 17.8611 26.5829 16.9758 27.144L16.6093 27.3763L16.353 26.5906C16.2121 26.1585 16.04 25.6757 15.9706 25.5177L15.8442 25.2304L17.0478 25.2229C18.2731 25.2154 19.304 25.0823 20.3863 24.7919C20.7024 24.7071 21.0164 24.6534 21.0842 24.6727C21.1519 24.6919 21.5029 24.7759 21.8642 24.8593ZM20.033 27.7037L20.3365 27.754L20.3614 30.9776C20.3848 34.0131 20.3954 34.2113 20.5427 34.3739C20.7553 34.6086 21.2488 34.6086 21.4615 34.3739C21.6088 34.2113 21.6194 34.013 21.6428 30.9729L21.6676 27.7446L22.0944 27.6922C23.3855 27.5336 24.9933 28.2985 25.1478 29.1448C25.1751 29.2943 25.1864 31.0232 25.1729 32.987C25.1452 37.0405 25.1714 36.8756 24.4452 37.5868C23.6577 38.3579 22.4664 38.766 21.0021 38.766C19.5121 38.766 18.3493 38.3552 17.5148 37.5342C16.8068 36.8377 16.8146 36.8901 16.8146 32.7646C16.8146 29.9255 16.8374 29.1526 16.9276 28.9419C17.2789 28.1213 18.8262 27.5043 20.033 27.7037Z" fill="black"/>
</svg>
