<svg width="106" height="18" viewBox="0 0 106 18" fill="none" xmlns="http://www.w3.org/2000/svg">
<path d="M8.68366 0L10.6333 6.00026H16.9423L11.8382 9.70863L13.7878 15.7089L8.68366 12.0005L3.57953 15.7089L5.52914 9.70863L0.425009 6.00026H6.73406L8.68366 0Z" fill="#F6C644"/>
<path d="M30.8418 0L32.7914 6.00026H39.1005L33.9963 9.70863L35.9459 15.7089L30.8418 12.0005L25.7377 15.7089L27.6873 9.70863L22.5832 6.00026H28.8922L30.8418 0Z" fill="#F6C644"/>
<path d="M53 0L54.9496 6.00026H61.2587L56.1545 9.70863L58.1041 15.7089L53 12.0005L47.8959 15.7089L49.8455 9.70863L44.7414 6.00026H51.0504L53 0Z" fill="#F6C644"/>
<path d="M75.1581 0L77.1078 6.00026H83.4168L78.3127 9.70863L80.2623 15.7089L75.1581 12.0005L70.054 15.7089L72.0036 9.70863L66.8995 6.00026H73.2085L75.1581 0Z" fill="#F6C644"/>
<path d="M97.3165 0L99.2661 6.00026H105.575L100.471 9.70863L102.421 15.7089L97.3165 12.0005L92.2123 15.7089L94.1619 9.70863L89.0578 6.00026H95.3669L97.3165 0Z" fill="#F6C644"/>
</svg>
