<svg width="86" height="14" viewBox="0 0 86 14" fill="none" xmlns="http://www.w3.org/2000/svg">
<path d="M7 0L8.5716 4.83688H13.6574L9.5429 7.82624L11.1145 12.6631L7 9.67376L2.8855 12.6631L4.4571 7.82624L0.342604 4.83688H5.4284L7 0Z" fill="#F6C344"/>
<path d="M24.8613 0L26.4329 4.83688H31.5187L27.4042 7.82624L28.9758 12.6631L24.8613 9.67376L20.7468 12.6631L22.3184 7.82624L18.2039 4.83688H23.2897L24.8613 0Z" fill="#F6C344"/>
<path d="M42.7227 0L44.2943 4.83688H49.3801L45.2656 7.82624L46.8372 12.6631L42.7227 9.67376L38.6082 12.6631L40.1798 7.82624L36.0653 4.83688H41.1511L42.7227 0Z" fill="#F6C344"/>
<path d="M60.5859 0L62.1575 4.83688H67.2433L63.1288 7.82624L64.7004 12.6631L60.5859 9.67376L56.4714 12.6631L58.043 7.82624L53.9285 4.83688H59.0143L60.5859 0Z" fill="#F6C344"/>
<path d="M78.4473 0L80.0189 4.83688H85.1047L80.9902 7.82624L82.5618 12.6631L78.4473 9.67376L74.3328 12.6631L75.9044 7.82624L71.7899 4.83688H76.8757L78.4473 0Z" fill="#F6C344"/>
</svg>
