<svg width="165" height="6" viewBox="0 0 165 6" fill="none" xmlns="http://www.w3.org/2000/svg">
<path fill-rule="evenodd" clip-rule="evenodd" d="M113.146 0.856624C113.181 0.781266 113.2 0.69691 113.2 0.607854C113.2 0.288336 112.95 0.0293164 112.641 0.0293164C105.22 0.0293164 97.7992 0.0227845 90.3776 0.0162523C75.5332 0.00318691 60.6876 -0.00987953 45.8432 0.0293183C44.6629 0.0324352 43.4698 0.0238004 42.269 0.0151095C38.021 -0.0156347 33.676 -0.0470811 29.4539 0.43851C29.1313 0.475618 28.8784 0.510872 28.694 0.545056C28.6028 0.561968 28.5174 0.580581 28.4441 0.602071C28.4076 0.612789 28.3651 0.626804 28.3221 0.645406C28.2865 0.660756 28.2138 0.69453 28.1419 0.757598C28.0788 0.812975 27.9035 0.995065 27.9391 1.2894C27.9712 1.55501 28.1532 1.68657 28.2016 1.71935C28.3141 1.79549 28.4395 1.82323 28.4854 1.83337L28.4866 1.83364C28.619 1.86293 28.8016 1.88342 29.004 1.89981C29.8295 1.96666 31.4507 1.99824 33.3651 2.01184C35.8097 2.02921 38.7796 2.01725 41.2729 2.00721C42.6939 2.00149 43.9601 1.99639 44.8859 1.9977C56.6103 2.01428 68.3348 2.02073 80.0593 2.02169C69.5593 2.29072 59.06 2.61968 48.5643 3.04244C36.4383 3.10141 24.9965 3.15658 15.6692 3.20155C9.60773 3.23078 4.43924 3.2557 0.556292 3.27456C0.247615 3.27606 -0.00144207 3.53629 6.2851e-06 3.85581C0.0014546 4.17532 0.25286 4.43312 0.561537 4.43162C4.44439 4.41277 9.6128 4.38784 15.6742 4.35862C17.7208 4.34875 19.8692 4.33839 22.1042 4.32761C21.6757 4.3523 21.2473 4.3772 20.8188 4.4023C17.166 4.61632 15.301 4.73877 14.6436 4.79911C14.5606 4.80673 14.4919 4.81379 14.4391 4.82039C14.413 4.82364 14.3861 4.82735 14.3611 4.83166L14.3594 4.83195C14.3449 4.83443 14.2912 4.84355 14.2348 4.86473C14.2174 4.87125 14.182 4.88536 14.141 4.91011C14.1153 4.92556 14.0062 4.99139 13.9313 5.13231C13.8993 5.20349 13.8633 5.36936 13.8639 5.46151C13.8781 5.55049 13.9371 5.70198 13.9766 5.76335C14.0638 5.88168 14.17 5.93049 14.1959 5.94238C14.2632 5.97331 14.3228 5.98358 14.3362 5.98588L14.3374 5.98609C14.3603 5.99008 14.3802 5.99224 14.3931 5.99346C14.4401 5.99789 14.4978 5.99917 14.5493 5.99969C14.7688 6.00194 15.2144 5.99168 15.7987 5.97378C17.4177 5.92416 20.2012 5.81232 22.5898 5.71635C23.6697 5.67296 24.6689 5.63281 25.4432 5.60313C47.7672 4.74729 70.1121 4.26648 92.4585 3.98316C106.351 3.91336 118.808 3.84895 127.449 3.8006C139.505 3.73315 145.922 3.68951 148.698 3.66236C149.392 3.65557 149.86 3.6498 150.132 3.64492C150.266 3.64253 150.36 3.64023 150.41 3.63778C150.422 3.63723 150.441 3.63621 150.461 3.63418L150.462 3.63414C150.466 3.6337 150.501 3.63036 150.542 3.62029C150.577 3.61036 150.707 3.54866 150.793 3.4808C150.962 3.16 150.804 2.64451 150.653 2.53524C150.606 2.51453 150.536 2.49286 150.514 2.48814C150.501 2.48586 150.481 2.48278 150.473 2.48172C150.457 2.47985 150.444 2.4789 150.437 2.47845C150.422 2.47745 150.406 2.47681 150.393 2.47636C150.198 2.46972 149.341 2.46676 148.093 2.46602C143.075 2.46303 131.486 2.49669 129.316 2.50833C119.317 2.56195 109.315 2.63558 99.3126 2.74512C104.745 2.63726 110.178 2.5399 115.611 2.44835C129.315 2.21744 136.59 2.13177 149.962 2.04276C153.095 2.0219 156.228 2.01263 159.363 2.00334C159.987 2.00149 160.612 1.99964 161.237 1.9977H164.459C164.591 1.9977 164.661 1.99765 164.676 1.99755L164.682 1.99748C164.683 1.99748 164.688 1.99741 164.694 1.99718C164.7 1.99696 164.72 1.99561 164.736 1.99407C165.137 1.74376 165.036 0.977636 164.733 0.843619C164.719 0.842261 164.7 0.841033 164.695 0.840828L164.687 0.840587L164.681 0.840484L164.676 0.840434L164.654 0.840343L164.56 0.840158C164.392 0.839896 164.056 0.839583 163.653 0.839375C162.848 0.838957 161.774 0.838956 161.235 0.840626H160.017C147.224 0.840626 134.432 0.846656 121.639 0.852686C118.808 0.854021 115.977 0.855355 113.146 0.856624ZM14.5468 5.97269C14.5404 5.97399 14.539 5.97401 14.5445 5.97306C14.5449 5.97299 14.5457 5.97286 14.5468 5.97269ZM28.7032 0.697672C28.7035 0.697584 28.7073 0.6985 28.7139 0.700682C28.7063 0.69885 28.7029 0.69776 28.7032 0.697672Z" fill="#197AFF"/>
</svg>
