<svg width="50" height="50" viewBox="0 0 50 50" fill="none" xmlns="http://www.w3.org/2000/svg">
<path d="M25 50C38.8071 50 50 38.8071 50 25C50 11.1929 38.8071 0 25 0C11.1929 0 0 11.1929 0 25C0 38.8071 11.1929 50 25 50Z" fill="white"/>
<g clip-path="url(#clip0_3_35)">
<path d="M15.3816 35.0527L16.25 36.3554L23.6316 32.4475L32.3158 36.3554L33.1842 35.9212V34.1843L32.3158 26.8027L37.9605 20.7238V18.9869L28.8421 17.2501L25.0952 10.3027H23.6316L19.2895 17.6843L11.0395 19.4212V20.7238L16.6842 26.8027L15.3816 35.0527Z" fill="#197AFF" stroke="black"/>
<path fill-rule="evenodd" clip-rule="evenodd" d="M23.8468 9.0781C23.4387 9.23048 23.0374 9.49749 22.8384 9.74914C22.7328 9.88268 21.8767 11.5509 20.9359 13.4564C19.5068 16.3509 19.2004 16.9271 19.0735 16.9576C18.9901 16.9776 17.2496 17.237 15.2057 17.5338C12.5486 17.9198 11.4057 18.1108 11.1948 18.204C10.7991 18.3791 10.3363 18.8168 10.1265 19.2143C9.97385 19.5036 9.95495 19.6106 9.95495 20.1846C9.95495 20.76 9.97366 20.8652 10.1281 21.1579C10.2578 21.4038 10.9865 22.1558 13.031 24.1539C14.5324 25.621 15.7995 26.8814 15.8468 26.9547C15.9211 27.0699 15.8452 27.5985 15.2823 30.8814C14.9245 32.9679 14.6318 34.7573 14.6318 34.8579C14.6318 35.4755 15.103 36.2806 15.6761 36.6425C16.0399 36.8721 16.6452 37.0108 17.0582 36.9592C17.4793 36.9067 17.7656 36.7674 21.4377 34.8293C23.0344 33.9866 24.4133 33.2969 24.502 33.2964C24.5907 33.2961 25.9986 34.0005 27.6307 34.8619C31.7052 37.0121 31.5834 36.9561 32.1777 36.9537C32.5708 36.952 32.7393 36.9167 33.0684 36.7671C33.8916 36.3928 34.4475 35.4747 34.3499 34.6509C34.3287 34.4715 34.0324 32.6964 33.6915 30.706C33.1559 27.5796 33.0832 27.0693 33.1574 26.9548C33.2045 26.882 34.4624 25.6319 35.9526 24.1769C39.1187 21.0855 39.0491 21.1752 39.0491 20.1846C39.0491 19.6095 39.0304 19.5044 38.8771 19.2169C38.6523 18.7951 38.2257 18.3873 37.8234 18.2099C37.5778 18.1015 36.6168 17.9394 33.7915 17.5299C31.7514 17.2342 30.0142 16.9763 29.9311 16.9568C29.8048 16.9272 29.4936 16.3421 28.0428 13.4069C26.1676 9.61328 26.1316 9.55497 25.4557 9.20893C25.0443 8.99837 24.2363 8.93263 23.8468 9.0781ZM14.3931 10.1506C14.1343 10.3083 13.9867 10.5875 13.9867 10.9191C13.9867 11.1186 14.0545 11.2748 14.2932 11.6252C15.1184 12.8367 15.4355 13.1134 15.8983 13.0265C16.3507 12.9417 16.691 12.4489 16.6046 12.0037C16.5521 11.7328 15.5144 10.3071 15.2544 10.1486C14.9941 9.98983 14.6554 9.99061 14.3931 10.1506ZM33.8094 10.1196C33.6661 10.1819 33.4209 10.455 33.02 10.9988C32.2691 12.0176 32.2063 12.3225 32.6548 12.771C33.12 13.2362 33.6138 13.108 34.1652 12.3788C34.862 11.4574 35.0172 11.1886 35.017 10.9038C35.0166 10.5593 34.818 10.2357 34.534 10.1171C34.2593 10.0022 34.0779 10.0029 33.8094 10.1196ZM24.7767 10.8467C24.8754 10.9568 26.1377 13.4593 27.5345 16.3139C27.9251 17.1123 28.332 17.8519 28.4647 18.0046C28.6001 18.1605 28.8711 18.3595 29.1011 18.4719C29.4722 18.6534 29.7807 18.7083 33.3068 19.2203C36.1039 19.6265 37.1423 19.8002 37.2259 19.8758C37.2902 19.9341 37.3396 20.0701 37.3396 20.189C37.3396 20.3812 37.1017 20.6304 34.5635 23.0981C32.1511 25.4434 31.7624 25.8477 31.5969 26.1841C31.2602 26.8685 31.2611 26.8807 31.9841 31.0762C32.5957 34.6255 32.6315 34.8816 32.5366 35.0264C32.3183 35.3596 32.3348 35.3664 28.6863 33.4494C25.873 31.9711 25.176 31.6301 24.8729 31.5832C24.1117 31.4653 24.0528 31.4895 20.3201 33.4501C16.6688 35.368 16.6864 35.3608 16.4674 35.0266C16.3727 34.882 16.4088 34.6241 17.0202 31.0764C17.7431 26.8811 17.744 26.8698 17.4075 26.1841C17.2421 25.8473 16.8566 25.4461 14.4409 23.0977C11.9043 20.6316 11.6644 20.3803 11.6644 20.1886C11.6644 20.0703 11.7136 19.9347 11.7773 19.8777C11.8914 19.7755 12.0034 19.7575 17.2768 18.9915C19.7767 18.6285 20.0758 18.5379 20.5392 18.0046C20.6719 17.8519 21.0788 17.1123 21.4695 16.3139C22.8662 13.4593 24.1285 10.9568 24.2272 10.8467C24.2829 10.7846 24.4065 10.7338 24.502 10.7338C24.5975 10.7338 24.7211 10.7846 24.7767 10.8467ZM9.23011 28.2374C8.65029 28.435 8.3874 28.56 8.23929 28.7082C7.8481 29.0998 7.95093 29.7698 8.44282 30.0336C8.75499 30.201 8.88194 30.1862 9.89386 29.8636C11.0294 29.5017 11.1805 29.3753 11.1805 28.7875C11.1805 28.4221 11.1666 28.3871 10.9396 28.1789C10.7266 27.9837 10.6592 27.9587 10.359 27.9632C10.1406 27.9664 9.73748 28.0644 9.23011 28.2374ZM38.0644 28.1789C37.8373 28.3871 37.8234 28.4221 37.8234 28.7875C37.8234 29.373 37.9747 29.5003 39.1015 29.8632C40.1021 30.1854 40.2467 30.2023 40.5611 30.0336C40.8683 29.8689 41.0323 29.5484 40.9947 29.186C40.9482 28.7368 40.6872 28.5417 39.7042 28.2219C38.6702 27.8855 38.3925 27.8783 38.0644 28.1789ZM24.07 38.3377C23.6648 38.5923 23.6311 38.7093 23.6311 39.8603C23.6311 41.0121 23.666 41.1328 24.07 41.3792C24.4591 41.6164 24.9897 41.4829 25.2526 41.0817C25.3818 40.8846 25.4538 39.7115 25.3753 39.0834C25.3107 38.5667 25.0415 38.2743 24.5947 38.2357C24.3529 38.2147 24.2265 38.2393 24.07 38.3377Z" fill="#11346F"/>
</g>
<defs>
<clipPath id="clip0_3_35">
<rect width="33" height="33" fill="white" transform="translate(8 9)"/>
</clipPath>
</defs>
</svg>
