<svg width="19" height="19" viewBox="0 0 19 19" fill="none" xmlns="http://www.w3.org/2000/svg">
<path d="M9.5 0.75C4.67875 0.75 0.75 4.67875 0.75 9.5C0.75 14.3212 4.67875 18.25 9.5 18.25C14.3212 18.25 18.25 14.3212 18.25 9.5C18.25 4.67875 14.3212 0.75 9.5 0.75ZM13.6825 7.4875L8.72125 12.4487C8.59875 12.5712 8.4325 12.6413 8.2575 12.6413C8.0825 12.6413 7.91625 12.5712 7.79375 12.4487L5.3175 9.9725C5.06375 9.71875 5.06375 9.29875 5.3175 9.045C5.57125 8.79125 5.99125 8.79125 6.245 9.045L8.2575 11.0575L12.755 6.56C13.0087 6.30625 13.4288 6.30625 13.6825 6.56C13.9363 6.81375 13.9363 7.225 13.6825 7.4875Z" fill="#89C25F"/>
</svg>
