<svg width="19" height="19" viewBox="0 0 19 19" fill="none" xmlns="http://www.w3.org/2000/svg">
<path d="M9.49999 1.5835C5.13791 1.5835 1.58333 5.13808 1.58333 9.50016C1.58333 13.8622 5.13791 17.4168 9.49999 17.4168C13.8621 17.4168 17.4167 13.8622 17.4167 9.50016C17.4167 5.13808 13.8621 1.5835 9.49999 1.5835ZM13.2842 7.67933L8.79541 12.1681C8.68458 12.2789 8.53416 12.3422 8.37583 12.3422C8.21749 12.3422 8.06708 12.2789 7.95624 12.1681L5.71583 9.92766C5.48624 9.69808 5.48624 9.31808 5.71583 9.0885C5.94541 8.85891 6.32541 8.85891 6.55499 9.0885L8.37583 10.9093L12.445 6.84016C12.6746 6.61058 13.0546 6.61058 13.2842 6.84016C13.5137 7.06975 13.5137 7.44183 13.2842 7.67933Z" fill="#197AFF"/>
</svg>
